<svg version="1.1" id="Layer_1" xmlns="http://www.w3.org/2000/svg" xmlns:xlink="http://www.w3.org/1999/xlink" x="0px" y="0px"
	 width="100%" viewBox="0 0 474 601" enable-background="new 0 0 474 601" xml:space="preserve">
<path fill="#FDFDFE" opacity="1.000000" stroke="none" 
	d="
M1.000000,211.000000 
	C1.000000,140.682907 1.000000,70.865807 1.000000,1.024356 
	C158.947021,1.024356 316.894043,1.024356 474.920532,1.024356 
	C474.920532,201.233749 474.920532,401.467560 474.920532,601.850708 
	C317.000092,601.850708 159.000076,601.850708 1.000000,601.850708 
	C1.000000,471.772675 1.000000,341.636322 1.000000,211.000000 
M58.369740,4.669955 
	C58.369740,4.669955 57.999542,5.001125 57.149452,5.003253 
	C54.687504,5.361582 52.157070,5.468337 49.774155,6.117001 
	C24.849024,12.901973 6.317141,36.176739 4.927660,62.948971 
	C4.901999,134.361603 4.930834,205.774307 4.830835,277.186829 
	C4.767909,322.123901 4.511932,367.060669 4.131993,412.911804 
	C4.111887,418.615479 4.091780,424.319122 3.891391,430.942230 
	C3.965425,443.281250 4.039459,455.620300 3.960028,468.823975 
	C5.075113,474.350281 5.545810,480.106079 7.417975,485.362762 
	C15.099134,506.929901 30.298977,521.901062 51.413319,529.593018 
	C68.197678,535.707520 85.752640,539.976135 103.232132,543.866089 
	C175.767960,560.008606 248.419159,575.631775 320.998230,591.581055 
	C352.881866,598.587524 384.568146,579.490967 391.783264,548.475769 
	C394.650543,536.150330 397.256744,523.762817 399.875336,511.381042 
	C414.023529,444.483398 428.147491,377.580627 442.261444,310.675751 
	C452.043488,264.305481 462.116821,217.993393 471.449249,171.532639 
	C477.712128,140.353378 457.780731,110.697876 426.802307,103.743393 
	C411.372803,100.279549 395.913269,96.937019 380.411804,93.815048 
	C376.495148,93.026237 374.837128,91.711655 375.042480,87.391251 
	C375.421722,79.413353 375.226776,71.399338 375.048584,63.405319 
	C374.353149,32.211563 350.056335,6.674304 318.166443,4.119997 
	C316.110168,4.158235 314.053925,4.196473 311.092377,4.044753 
	C307.387787,4.126164 303.683167,4.207574 299.062775,4.090458 
	C220.803055,4.062678 142.543335,4.030156 64.283615,4.036681 
	C62.477264,4.036831 60.670948,4.477494 58.369740,4.669955 
z"/>
<path fill="#7733E7" opacity="1.000000" stroke="none" 
	d="
M5.144757,62.038754 
	C6.317141,36.176739 24.849024,12.901973 49.774155,6.117001 
	C52.157070,5.468337 54.687504,5.361582 57.574688,5.441390 
	C58.233704,9.089702 58.467484,12.299878 58.698357,15.470171 
	C54.104229,16.060541 54.104229,16.060541 49.749741,7.721220 
	C48.593307,8.538985 46.451027,9.719518 46.568382,10.021275 
	C48.214279,14.253448 44.678116,14.823404 41.772659,16.123476 
	C44.049236,17.878464 45.848843,19.270407 47.655403,20.653271 
	C47.917847,20.854160 48.205765,21.025530 48.495018,21.187071 
	C53.346710,23.896633 56.219467,23.024607 59.372307,18.917616 
	C60.206146,17.831434 62.956615,17.975307 64.825737,17.980890 
	C67.737900,17.989590 70.902054,19.179445 73.496498,18.375269 
	C76.748352,17.367325 79.641281,15.000131 82.484299,12.937308 
	C84.815399,11.245917 86.701637,11.134890 89.245399,12.682549 
	C94.467232,15.859577 99.683701,13.199078 101.375824,6.992378 
	C102.497849,6.990164 103.245880,6.988348 104.031937,7.345868 
	C106.891571,13.793976 110.753525,14.999231 116.521240,12.346606 
	C120.167656,10.669591 124.178131,9.170752 128.111832,8.913139 
	C131.680344,8.679443 135.365997,10.234097 138.961029,11.353201 
	C134.564255,17.004883 129.845840,18.291779 123.618446,16.394806 
	C122.106834,15.934340 120.101250,16.476000 118.512634,17.067055 
	C117.011543,17.625546 115.652054,18.731762 114.419296,19.812641 
	C110.878990,22.916748 108.421989,21.963535 106.058205,18.222799 
	C105.353928,17.108282 102.965309,15.946241 101.960274,16.345631 
	C99.136269,17.467840 96.630981,19.392061 93.583344,21.000000 
	C91.777840,21.000000 90.388985,21.000000 88.864151,20.689373 
	C87.156891,19.147734 85.585617,17.916723 84.014343,16.685711 
	C84.518394,18.506775 85.012367,20.330746 85.536392,22.146042 
	C85.624138,22.450001 85.842171,22.716349 85.779999,23.262413 
	C84.542709,23.880629 83.525421,24.236502 82.754311,24.506254 
	C83.197311,26.469080 83.598572,28.246960 83.562363,30.113302 
	C80.750000,30.142838 78.375107,30.083910 76.000809,29.629719 
	C76.179207,27.663723 76.357002,26.092989 76.622154,23.750538 
	C72.781197,23.451479 69.208221,23.173286 64.839890,22.833166 
	C66.146500,25.615337 66.960480,27.348537 67.580292,29.420937 
	C62.704700,30.799437 57.822372,31.305193 53.379513,32.978088 
	C40.059341,37.993610 33.817860,48.660080 31.013157,62.276146 
	C30.424322,64.100815 30.024239,65.715492 30.023878,67.330261 
	C29.994787,197.712189 29.992041,328.094147 30.045021,458.476044 
	C30.045778,460.342804 30.772772,462.209259 31.307810,464.428162 
	C34.677773,486.337128 47.374542,497.094055 69.246254,497.080017 
	C150.709503,497.027740 232.172791,497.011566 313.636017,497.064697 
	C323.118378,497.070892 331.818542,494.535767 337.957367,487.457977 
	C342.285065,482.468292 344.757507,475.869476 348.448669,469.891449 
	C349.226501,467.784851 349.950897,465.776184 349.952637,463.766907 
	C350.011719,394.653687 350.002319,325.540466 350.003082,256.427216 
	C350.003815,192.143585 350.019836,127.859940 349.931122,63.576435 
	C349.928589,61.727352 348.817230,59.879799 348.039734,57.701668 
	C343.508057,42.141518 333.742889,32.844849 317.907227,30.582035 
	C313.340637,29.929493 308.642273,30.198683 303.915680,29.645144 
	C302.002747,28.829781 300.179321,28.057173 298.354034,28.052628 
	C267.903229,27.976809 237.452194,27.997107 207.000153,27.603531 
	C206.178513,25.811445 205.490997,24.308435 204.503998,23.038095 
	C203.243042,21.415142 200.795853,20.129847 200.526810,18.434496 
	C199.839920,14.106284 197.246567,12.759460 193.000000,12.621138 
	C193.000000,10.537342 193.000000,8.769116 193.347382,7.057198 
	C194.952560,8.322783 196.008728,10.059812 197.509460,10.633147 
	C200.787415,11.885448 202.482910,14.049715 204.342422,17.011971 
	C206.195969,19.964685 209.812317,22.605431 213.178162,23.581404 
	C216.285339,24.482374 221.420715,26.278870 222.461105,19.725220 
	C222.618011,18.736797 225.293411,17.304070 226.604874,17.488846 
	C232.349747,18.298250 238.019302,19.638014 243.720642,20.762716 
	C246.184647,21.248789 247.819122,20.904352 249.345261,18.215645 
	C250.307495,16.520445 253.432846,15.691997 255.735901,15.255246 
	C257.103241,14.995943 258.758026,16.252478 260.373199,16.861254 
	C261.545227,15.547632 262.610229,14.353994 263.711609,13.119561 
	C264.511536,13.421942 265.103851,13.759007 265.734344,13.861737 
	C267.272003,14.112277 268.827301,14.254258 270.375519,14.439950 
	C270.223450,12.897988 270.140045,11.345155 269.898193,9.817412 
	C269.694336,8.530107 269.306427,7.271949 269.399994,6.000045 
	C270.866669,6.000737 271.933350,6.002272 273.037659,6.365701 
	C273.729980,10.727704 271.791443,16.091730 278.387482,16.355797 
	C277.573975,18.370470 276.955872,19.901209 276.337769,21.431950 
	C277.953339,21.626970 279.567169,21.838196 281.185425,22.007202 
	C281.675598,22.058392 282.204987,22.092009 282.670624,21.965359 
	C287.645081,20.612373 293.485748,21.997847 297.012970,16.159554 
	C298.400116,13.863514 301.951721,12.883858 304.500549,11.277575 
	C305.998840,10.333343 307.463501,9.335761 308.943298,8.362171 
	C308.625610,7.910099 308.307922,7.458026 307.990234,7.005954 
	C307.010010,7.437943 306.031311,7.873526 305.049255,8.301291 
	C300.925964,10.097316 296.743347,9.136770 295.382568,5.995014 
	C297.169037,5.425619 298.573792,4.857301 299.978577,4.288984 
	C303.683167,4.207574 307.387787,4.126164 311.564117,4.521746 
	C314.834503,8.059482 317.244354,7.852131 319.007477,4.398883 
	C350.056335,6.674304 374.353149,32.211563 375.048584,63.405319 
	C375.226776,71.399338 375.421722,79.413353 375.042480,87.391251 
	C374.837128,91.711655 376.495148,93.026237 380.411804,93.815048 
	C395.913269,96.937019 411.372803,100.279549 426.802307,103.743393 
	C457.780731,110.697876 477.712128,140.353378 471.449249,171.532639 
	C462.116821,217.993393 452.043488,264.305481 442.261444,310.675751 
	C428.147491,377.580627 414.023529,444.483398 399.875336,511.381042 
	C397.256744,523.762817 394.650543,536.150330 391.783264,548.475769 
	C384.568146,579.490967 352.881866,598.587524 320.998230,591.581055 
	C248.419159,575.631775 175.767960,560.008606 103.232132,543.866089 
	C85.752640,539.976135 68.197678,535.707520 51.413319,529.593018 
	C30.298977,521.901062 15.099134,506.929901 7.417975,485.362762 
	C5.545810,480.106079 5.075113,474.350281 4.308843,468.083008 
	C4.766950,455.636353 4.893008,443.930725 4.945513,432.224823 
	C4.948800,431.492126 4.376302,430.756866 4.071678,430.022797 
	C4.091780,424.319122 4.111887,418.615479 4.601137,412.324097 
	C5.380284,410.013062 5.961000,408.289856 5.961639,406.566437 
	C6.003575,293.476166 6.002443,180.385880 5.962300,67.295609 
	C5.961678,65.543221 5.429089,63.791035 5.144757,62.038754 
M153.029373,523.311157 
	C148.712585,523.411926 144.395813,523.512756 139.378922,523.326782 
	C138.074631,523.326782 136.770340,523.326782 135.466049,523.326782 
	C135.448929,523.554138 135.431793,523.781555 135.414673,524.008911 
	C136.947754,524.309937 138.480835,524.611023 140.755859,525.145630 
	C144.830215,526.035034 148.904572,526.924438 153.711777,528.112854 
	C156.076996,528.551941 158.442215,528.991028 161.484558,529.769531 
	C165.846222,530.813843 170.189529,531.943359 174.572403,532.889404 
	C224.533890,543.674194 274.601196,553.995850 324.416351,565.417725 
	C343.315125,569.750977 363.250977,560.132568 367.284088,537.634583 
	C370.656738,518.820801 375.075928,500.194366 379.046204,481.488037 
	C389.539124,432.049652 400.054047,382.615936 410.533936,333.174774 
	C422.220398,278.041199 433.943512,222.915207 445.511047,167.756638 
	C449.341583,149.490967 438.094116,132.754272 419.833954,128.857849 
	C414.626709,127.746704 409.452057,126.482735 404.244690,125.372200 
	C394.718811,123.340683 385.179657,121.371300 375.077698,119.257050 
	C375.077698,121.711914 375.077454,123.515022 375.077759,125.318130 
	C375.087006,178.975723 375.102264,232.633301 375.103912,286.290894 
	C375.105774,345.447601 375.235992,404.604767 375.033539,463.760803 
	C374.923767,495.841125 348.410950,523.121948 317.450684,522.443970 
	C316.477386,522.297058 315.504120,522.021912 314.530762,522.021545 
	C264.096893,522.003540 213.662994,522.001282 163.229141,522.050354 
	C161.821915,522.051758 160.415237,522.629700 158.172653,523.117981 
	C156.760696,523.234741 155.348724,523.351562 153.029373,523.311157 
M54.613289,27.065651 
	C53.704620,27.981117 52.795956,28.896582 51.887291,29.812048 
	C56.963123,29.571878 56.963123,29.571878 54.613289,27.065651 
M226.818466,20.377443 
	C227.025528,21.099354 227.232590,21.821264 227.439651,22.543175 
	C227.828903,22.404167 228.218155,22.265158 228.607407,22.126150 
	C228.212479,21.532993 227.817535,20.939835 226.818466,20.377443 
M264.799011,19.394346 
	C264.794769,19.786734 264.790558,20.179121 264.786316,20.571508 
	C264.949158,20.573048 265.253479,20.585514 265.254333,20.574547 
	C265.284485,20.184105 265.286255,19.791471 264.799011,19.394346 
z"/>
<path fill="#7734E8" opacity="1.000000" stroke="none" 
	d="
M101.001831,6.992776 
	C99.683701,13.199078 94.467232,15.859577 89.245399,12.682549 
	C86.701637,11.134890 84.815399,11.245917 82.484299,12.937308 
	C79.641281,15.000131 76.748352,17.367325 73.496498,18.375269 
	C70.902054,19.179445 67.737900,17.989590 64.825737,17.980890 
	C62.956615,17.975307 60.206146,17.831434 59.372307,18.917616 
	C56.219467,23.024607 53.346710,23.896633 48.495018,21.187071 
	C48.205765,21.025530 47.917847,20.854160 47.655403,20.653271 
	C45.848843,19.270407 44.049236,17.878464 41.772659,16.123476 
	C44.678116,14.823404 48.214279,14.253448 46.568382,10.021275 
	C46.451027,9.719518 48.593307,8.538985 49.749741,7.721220 
	C54.104229,16.060541 54.104229,16.060541 58.698357,15.470171 
	C58.467484,12.299878 58.233704,9.089702 57.999733,5.440326 
	C57.999542,5.001125 58.369740,4.669955 58.892830,5.037208 
	C60.370716,5.601683 61.321327,5.946630 62.280941,5.973808 
	C75.187172,6.339327 88.094658,6.660560 101.001831,6.992776 
z"/>
<path fill="#6A2BE4" opacity="1.000000" stroke="none" 
	d="
M101.375824,6.992378 
	C88.094658,6.660560 75.187172,6.339327 62.280941,5.973808 
	C61.321327,5.946630 60.370716,5.601683 59.140266,5.058571 
	C60.670948,4.477494 62.477264,4.036831 64.283615,4.036681 
	C142.543335,4.030156 220.803055,4.062678 299.520691,4.189721 
	C298.573792,4.857301 297.169037,5.425619 294.913940,5.995142 
	C287.042419,5.998834 280.021210,6.001320 273.000031,6.003806 
	C271.933350,6.002272 270.866669,6.000737 268.931335,5.999125 
	C243.041794,5.999680 218.020889,6.000311 192.535370,6.000143 
	C187.714432,5.998944 183.358124,5.998543 178.541016,5.997576 
	C174.386993,5.998873 170.693802,6.000736 166.532166,6.001647 
	C159.709152,6.000777 153.354568,6.000859 146.666672,6.000175 
	C145.888901,6.000140 145.444443,6.000873 144.531342,6.000429 
	C132.432526,5.999264 120.802078,5.958776 109.172546,6.043303 
	C107.444138,6.055866 105.720024,6.657449 103.993919,6.986530 
	C103.245880,6.988348 102.497849,6.990164 101.375824,6.992378 
z"/>
<path fill="#7030D8" opacity="1.000000" stroke="none" 
	d="
M5.036208,62.493862 
	C5.429089,63.791035 5.961678,65.543221 5.962300,67.295609 
	C6.002443,180.385880 6.003575,293.476166 5.961639,406.566437 
	C5.961000,408.289856 5.380284,410.013062 4.706420,411.867004 
	C4.511932,367.060669 4.767909,322.123901 4.830835,277.186829 
	C4.930834,205.774307 4.901999,134.361603 5.036208,62.493862 
z"/>
<path fill="#6926DA" opacity="1.000000" stroke="none" 
	d="
M3.981536,430.482513 
	C4.376302,430.756866 4.948800,431.492126 4.945513,432.224823 
	C4.893008,443.930725 4.766950,455.636353 4.385576,467.650665 
	C4.039459,455.620300 3.965425,443.281250 3.981536,430.482513 
z"/>
<path fill="#7734E8" opacity="1.000000" stroke="none" 
	d="
M318.586975,4.259440 
	C317.244354,7.852131 314.834503,8.059482 312.016754,4.616725 
	C314.053925,4.196473 316.110168,4.158235 318.586975,4.259440 
z"/>
<path fill="#FDFDFE" opacity="1.000000" stroke="none" 
	d="
M31.388485,62.066196 
	C33.817860,48.660080 40.059341,37.993610 53.379513,32.978088 
	C57.822372,31.305193 62.704700,30.799437 67.849159,29.485256 
	C70.874863,29.481913 73.437546,29.753447 76.000221,30.024979 
	C78.375107,30.083910 80.750000,30.142838 84.013290,30.203587 
	C88.266907,30.148016 91.632118,30.090622 95.459328,30.121811 
	C141.333939,30.223654 186.746567,30.261635 232.159164,30.240108 
	C256.107574,30.228758 280.055939,30.113586 304.004333,30.045292 
	C308.642273,30.198683 313.340637,29.929493 317.907227,30.582035 
	C333.742889,32.844849 343.508057,42.141518 348.018860,58.117561 
	C348.335358,61.516022 348.623413,64.168671 348.624390,66.821419 
	C348.659271,161.757095 348.727844,256.692841 348.650116,351.628448 
	C348.617828,391.082123 348.265228,430.535553 348.058289,469.989075 
	C344.757507,475.869476 342.285065,482.468292 337.957367,487.457977 
	C331.818542,494.535767 323.118378,497.070892 313.636017,497.064697 
	C232.172791,497.011566 150.709503,497.027740 69.246254,497.080017 
	C47.374542,497.094055 34.677773,486.337128 31.391941,463.959045 
	C31.324520,455.312866 31.314730,447.488220 31.316175,439.663544 
	C31.339426,313.797760 31.364120,187.931976 31.388485,62.066196 
M242.334183,286.773987 
	C252.145096,283.187195 261.864594,279.313324 271.809021,276.145660 
	C276.186310,274.751251 279.964294,273.263092 279.877472,268.217712 
	C279.794403,263.390900 276.099213,261.777985 271.816772,260.850983 
	C258.198517,257.903046 245.302719,253.075348 233.817810,245.018005 
	C213.558334,230.804810 203.246384,210.385681 198.082504,186.895020 
	C197.133499,182.578003 195.688507,179.045593 190.677612,179.068069 
	C185.569534,179.090958 183.825058,182.473724 182.835938,187.099777 
	C178.297302,208.326675 169.083557,227.005508 152.102356,241.184738 
	C139.523392,251.688156 124.719658,257.457947 108.918282,260.879700 
	C104.325401,261.874237 100.832214,263.828217 100.970695,268.852417 
	C101.104034,273.690338 104.754150,275.202179 109.080627,276.092529 
	C141.534973,282.771240 165.303482,300.256409 177.308151,331.893951 
	C179.715134,338.237396 181.305206,344.900238 183.102051,351.462341 
	C184.215851,355.529907 186.686371,357.987061 190.861893,357.872772 
	C194.819778,357.764404 197.213745,355.371765 197.873245,351.348816 
	C198.168335,349.548676 198.623734,347.771301 199.073212,346.000519 
	C205.485626,320.737732 218.189407,300.020935 242.334183,286.773987 
z"/>
<path fill="#FCFBFE" opacity="1.000000" stroke="none" 
	d="
M318.024078,523.062866 
	C348.410950,523.121948 374.923767,495.841125 375.033539,463.760803 
	C375.235992,404.604767 375.105774,345.447601 375.103912,286.290894 
	C375.102264,232.633301 375.087006,178.975723 375.077759,125.318130 
	C375.077454,123.515022 375.077698,121.711914 375.077698,119.257050 
	C385.179657,121.371300 394.718811,123.340683 404.244690,125.372200 
	C409.452057,126.482735 414.626709,127.746704 419.833954,128.857849 
	C438.094116,132.754272 449.341583,149.490967 445.511047,167.756638 
	C433.943512,222.915207 422.220398,278.041199 410.533936,333.174774 
	C400.054047,382.615936 389.539124,432.049652 379.046204,481.488037 
	C375.075928,500.194366 370.656738,518.820801 367.284088,537.634583 
	C363.250977,560.132568 343.315125,569.750977 324.416351,565.417725 
	C274.601196,553.995850 224.533890,543.674194 174.572403,532.889404 
	C170.189529,531.943359 165.846222,530.813843 161.196289,529.164062 
	C160.955170,526.841736 161.002350,525.124878 161.507080,523.323242 
	C198.200241,523.260376 234.435852,523.308777 270.671417,523.291870 
	C286.455658,523.284546 302.239868,523.143311 318.024078,523.062866 
z"/>
<path fill="#7631E7" opacity="1.000000" stroke="none" 
	d="
M179.001831,5.998141 
	C183.358124,5.998543 187.714432,5.998944 192.535095,6.250124 
	C192.999451,6.500905 193.000000,7.000891 193.000000,7.000891 
	C193.000000,8.769116 193.000000,10.537342 193.000000,12.621138 
	C197.246567,12.759460 199.839920,14.106284 200.526810,18.434496 
	C200.795853,20.129847 203.243042,21.415142 204.503998,23.038095 
	C205.490997,24.308435 206.178513,25.811445 206.531357,27.604816 
	C189.708801,27.997883 173.353973,27.997211 156.920959,27.618984 
	C153.589859,26.494308 150.351105,25.185211 147.081467,25.102955 
	C136.257065,24.830637 125.421516,25.000980 114.590240,25.000921 
	C109.871468,25.000895 105.098091,25.420689 100.457245,24.818943 
	C98.178085,24.523420 96.144646,22.332922 94.000000,21.000000 
	C96.630981,19.392061 99.136269,17.467840 101.960274,16.345631 
	C102.965309,15.946241 105.353928,17.108282 106.058205,18.222799 
	C108.421989,21.963535 110.878990,22.916748 114.419296,19.812641 
	C115.652054,18.731762 117.011543,17.625546 118.512634,17.067055 
	C120.101250,16.476000 122.106834,15.934340 123.618446,16.394806 
	C129.845840,18.291779 134.564255,17.004883 139.336029,11.353093 
	C140.500000,10.999945 141.250000,10.999801 142.373596,10.994833 
	C144.164810,9.326988 145.582413,7.663966 147.000000,6.000942 
	C153.354568,6.000859 159.709152,6.000777 166.575943,6.374530 
	C168.484344,10.871142 172.040955,10.345391 174.968170,9.791211 
	C176.497284,9.501716 177.668808,7.323377 179.001831,5.998141 
z"/>
<path fill="#7734E8" opacity="1.000000" stroke="none" 
	d="
M193.347382,7.057198 
	C193.000000,7.000891 192.999451,6.500905 192.999725,6.250923 
	C218.020889,6.000311 243.041794,5.999680 268.531342,5.999969 
	C269.306427,7.271949 269.694336,8.530107 269.898193,9.817412 
	C270.140045,11.345155 270.223450,12.897988 270.375519,14.439950 
	C268.827301,14.254258 267.272003,14.112277 265.734344,13.861737 
	C265.103851,13.759007 264.511536,13.421942 263.711609,13.119561 
	C262.610229,14.353994 261.545227,15.547632 260.373199,16.861254 
	C258.758026,16.252478 257.103241,14.995943 255.735901,15.255246 
	C253.432846,15.691997 250.307495,16.520445 249.345261,18.215645 
	C247.819122,20.904352 246.184647,21.248789 243.720642,20.762716 
	C238.019302,19.638014 232.349747,18.298250 226.604874,17.488846 
	C225.293411,17.304070 222.618011,18.736797 222.461105,19.725220 
	C221.420715,26.278870 216.285339,24.482374 213.178162,23.581404 
	C209.812317,22.605431 206.195969,19.964685 204.342422,17.011971 
	C202.482910,14.049715 200.787415,11.885448 197.509460,10.633147 
	C196.008728,10.059812 194.952560,8.322783 193.347382,7.057198 
z"/>
<path fill="#631FE0" opacity="1.000000" stroke="none" 
	d="
M348.448669,469.891449 
	C348.265228,430.535553 348.617828,391.082123 348.650116,351.628448 
	C348.727844,256.692841 348.659271,161.757095 348.624390,66.821419 
	C348.623413,64.168671 348.335358,61.516022 348.202026,58.447433 
	C348.817230,59.879799 349.928589,61.727352 349.931122,63.576435 
	C350.019836,127.859940 350.003815,192.143585 350.003082,256.427216 
	C350.002319,325.540466 350.011719,394.653687 349.952637,463.766907 
	C349.950897,465.776184 349.226501,467.784851 348.448669,469.891449 
z"/>
<path fill="#712BE5" opacity="1.000000" stroke="none" 
	d="
M156.999146,27.996538 
	C173.353973,27.997211 189.708801,27.997883 206.532425,27.997269 
	C237.452194,27.997107 267.903229,27.976809 298.354034,28.052628 
	C300.179321,28.057173 302.002747,28.829781 303.915680,29.645145 
	C280.055939,30.113586 256.107574,30.228758 232.159164,30.240108 
	C186.746567,30.261635 141.333939,30.223654 95.548370,29.722595 
	C96.833412,28.823114 98.489830,28.060841 100.149651,28.053362 
	C119.099182,27.967968 138.049240,27.997606 156.999146,27.996538 
z"/>
<path fill="#6224E0" opacity="1.000000" stroke="none" 
	d="
M31.013157,62.276146 
	C31.364120,187.931976 31.339426,313.797760 31.316175,439.663544 
	C31.314730,447.488220 31.324520,455.312866 31.244953,463.606689 
	C30.772772,462.209259 30.045778,460.342804 30.045021,458.476044 
	C29.992041,328.094147 29.994787,197.712189 30.023878,67.330261 
	C30.024239,65.715492 30.424322,64.100815 31.013157,62.276146 
z"/>
<path fill="#7734E8" opacity="1.000000" stroke="none" 
	d="
M273.037659,6.365701 
	C280.021210,6.001320 287.042419,5.998834 294.532227,5.996219 
	C296.743347,9.136770 300.925964,10.097316 305.049255,8.301291 
	C306.031311,7.873526 307.010010,7.437943 307.990234,7.005954 
	C308.307922,7.458026 308.625610,7.910099 308.943298,8.362171 
	C307.463501,9.335761 305.998840,10.333343 304.500549,11.277575 
	C301.951721,12.883858 298.400116,13.863514 297.012970,16.159554 
	C293.485748,21.997847 287.645081,20.612373 282.670624,21.965359 
	C282.204987,22.092009 281.675598,22.058392 281.185425,22.007202 
	C279.567169,21.838196 277.953339,21.626970 276.337769,21.431950 
	C276.955872,19.901209 277.573975,18.370470 278.387482,16.355797 
	C271.791443,16.091730 273.729980,10.727704 273.037659,6.365701 
z"/>
<path fill="#7732E7" opacity="1.000000" stroke="none" 
	d="
M156.920959,27.618984 
	C138.049240,27.997606 119.099182,27.967968 100.149651,28.053362 
	C98.489830,28.060841 96.833412,28.823114 95.086372,29.634014 
	C91.632118,30.090622 88.266907,30.148016 84.450760,30.115124 
	C83.598572,28.246960 83.197311,26.469080 82.754311,24.506254 
	C83.525421,24.236502 84.542709,23.880629 86.101059,23.236097 
	C87.428131,22.298294 88.214134,21.649149 89.000137,21.000000 
	C90.388985,21.000000 91.777840,21.000000 93.583344,21.000000 
	C96.144646,22.332922 98.178085,24.523420 100.457245,24.818943 
	C105.098091,25.420689 109.871468,25.000895 114.590240,25.000921 
	C125.421516,25.000980 136.257065,24.830637 147.081467,25.102955 
	C150.351105,25.185211 153.589859,26.494308 156.920959,27.618984 
z"/>
<path fill="#7734E8" opacity="1.000000" stroke="none" 
	d="
M142.000000,10.999657 
	C141.250000,10.999801 140.500000,10.999945 139.375000,11.000196 
	C135.365997,10.234097 131.680344,8.679443 128.111832,8.913139 
	C124.178131,9.170752 120.167656,10.669591 116.521240,12.346606 
	C110.753525,14.999231 106.891571,13.793976 104.031937,7.345867 
	C105.720024,6.657449 107.444138,6.055866 109.172546,6.043303 
	C120.802078,5.958776 132.432526,5.999264 144.495026,6.341728 
	C143.951569,8.122689 142.975784,9.561172 142.000000,10.999657 
z"/>
<path fill="#661FDF" opacity="1.000000" stroke="none" 
	d="
M317.737366,522.753418 
	C302.239868,523.143311 286.455658,523.284546 270.671417,523.291870 
	C234.435852,523.308777 198.200241,523.260376 161.177094,523.205078 
	C159.929123,523.094177 159.468704,523.016479 159.008301,522.938843 
	C160.415237,522.629700 161.821915,522.051758 163.229141,522.050354 
	C213.662994,522.001282 264.096893,522.003540 314.530762,522.021545 
	C315.504120,522.021912 316.477386,522.297058 317.737366,522.753418 
z"/>
<path fill="#7732E7" opacity="1.000000" stroke="none" 
	d="
M76.000809,29.629719 
	C73.437546,29.753447 70.874863,29.481913 68.043320,29.146057 
	C66.960480,27.348537 66.146500,25.615337 64.839890,22.833166 
	C69.208221,23.173286 72.781197,23.451479 76.622154,23.750538 
	C76.357002,26.092989 76.179207,27.663723 76.000809,29.629719 
z"/>
<path fill="#FCFBFE" opacity="1.000000" stroke="none" 
	d="
M152.978928,527.813782 
	C148.904572,526.924438 144.830215,526.035034 140.387543,524.811768 
	C140.050842,524.190491 140.070786,523.902405 140.079025,523.613525 
	C144.395813,523.512756 148.712585,523.411926 153.490356,523.711060 
	C153.627213,525.345215 153.303070,526.579529 152.978928,527.813782 
z"/>
<path fill="#EEE3FB" opacity="1.000000" stroke="none" 
	d="
M153.345352,527.963318 
	C153.303070,526.579529 153.627213,525.345215 153.944061,523.789673 
	C155.348724,523.351562 156.760696,523.234741 158.590485,523.028442 
	C159.468704,523.016479 159.929123,523.094177 160.719513,523.289917 
	C161.002350,525.124878 160.955170,526.841736 160.857727,528.994385 
	C158.442215,528.991028 156.076996,528.551941 153.345352,527.963318 
z"/>
<path fill="#7631E7" opacity="1.000000" stroke="none" 
	d="
M88.864151,20.689373 
	C88.214134,21.649149 87.428131,22.298294 86.321060,22.973759 
	C85.842171,22.716349 85.624138,22.450001 85.536392,22.146042 
	C85.012367,20.330746 84.518394,18.506775 84.014343,16.685711 
	C85.585617,17.916723 87.156891,19.147734 88.864151,20.689373 
z"/>
<path fill="#7734E8" opacity="1.000000" stroke="none" 
	d="
M54.984009,27.072029 
	C56.963123,29.571878 56.963123,29.571878 51.887291,29.812048 
	C52.795956,28.896582 53.704620,27.981117 54.984009,27.072029 
z"/>
<path fill="#EEE3FB" opacity="1.000000" stroke="none" 
	d="
M139.728973,523.470154 
	C140.070786,523.902405 140.050842,524.190491 140.016571,524.694946 
	C138.480835,524.611023 136.947754,524.309937 135.414673,524.008911 
	C135.431793,523.781555 135.448929,523.554138 135.466049,523.326782 
	C136.770340,523.326782 138.074631,523.326782 139.728973,523.470154 
z"/>
<path fill="#7734E8" opacity="1.000000" stroke="none" 
	d="
M227.120544,20.362061 
	C227.817535,20.939835 228.212479,21.532993 228.607407,22.126148 
	C228.218155,22.265158 227.828903,22.404167 227.439651,22.543175 
	C227.232590,21.821264 227.025528,21.099354 227.120544,20.362061 
z"/>
<path fill="#7734E8" opacity="1.000000" stroke="none" 
	d="
M265.045502,19.396744 
	C265.286255,19.791471 265.284485,20.184105 265.254333,20.574547 
	C265.253479,20.585514 264.949158,20.573048 264.786316,20.571508 
	C264.790558,20.179121 264.794769,19.786734 265.045502,19.396744 
z"/>
<path fill="#7734E8" opacity="1.000000" stroke="none" 
	d="
M178.541016,5.997575 
	C177.668808,7.323377 176.497284,9.501716 174.968170,9.791211 
	C172.040955,10.345391 168.484344,10.871142 167.044388,6.375482 
	C170.693802,6.000736 174.386993,5.998873 178.541016,5.997575 
z"/>
<path fill="#7733E7" opacity="1.000000" stroke="none" 
	d="
M142.373596,10.994833 
	C142.975784,9.561172 143.951569,8.122689 144.963684,6.342906 
	C145.444443,6.000873 145.888901,6.000140 146.666672,6.000175 
	C145.582413,7.663966 144.164810,9.326988 142.373596,10.994833 
z"/>
<path fill="#7633E7" opacity="1.000000" stroke="none" 
	d="
M242.003906,286.939178 
	C218.189407,300.020935 205.485626,320.737732 199.073212,346.000519 
	C198.623734,347.771301 198.168335,349.548676 197.873245,351.348816 
	C197.213745,355.371765 194.819778,357.764404 190.861893,357.872772 
	C186.686371,357.987061 184.215851,355.529907 183.102051,351.462341 
	C181.305206,344.900238 179.715134,338.237396 177.308151,331.893951 
	C165.303482,300.256409 141.534973,282.771240 109.080627,276.092529 
	C104.754150,275.202179 101.104034,273.690338 100.970695,268.852417 
	C100.832214,263.828217 104.325401,261.874237 108.918282,260.879700 
	C124.719658,257.457947 139.523392,251.688156 152.102356,241.184738 
	C169.083557,227.005508 178.297302,208.326675 182.835938,187.099777 
	C183.825058,182.473724 185.569534,179.090958 190.677612,179.068069 
	C195.688507,179.045593 197.133499,182.578003 198.082504,186.895020 
	C203.246384,210.385681 213.558334,230.804810 233.817810,245.018005 
	C245.302719,253.075348 258.198517,257.903046 271.816772,260.850983 
	C276.099213,261.777985 279.794403,263.390900 279.877472,268.217712 
	C279.964294,273.263092 276.186310,274.751251 271.809021,276.145660 
	C261.864594,279.313324 252.145096,283.187195 242.003906,286.939178 
z"/>
</svg>