<svg version="1.1" id="Layer_1" xmlns="http://www.w3.org/2000/svg" xmlns:xlink="http://www.w3.org/1999/xlink" x="0px" y="0px"
	 width="100%" viewBox="0 0 509 550" enable-background="new 0 0 509 550" xml:space="preserve">
<path fill="#FEFEFD" opacity="1.000000" stroke="none" 
	d="
M275.000000,551.000000 
	C183.354858,551.000000 92.209702,551.000000 1.032278,551.000000 
	C1.032278,367.731476 1.032278,184.462921 1.032278,1.097187 
	C170.561783,1.097187 340.123627,1.097187 509.842743,1.097187 
	C509.842743,184.333221 509.842743,367.666595 509.842743,551.000000 
	C431.796295,551.000000 353.648163,551.000000 275.000000,551.000000 
M382.690308,246.067627 
	C382.728912,214.862213 382.774017,183.656784 382.779785,152.451370 
	C382.779999,151.328262 382.392548,150.205093 382.434784,148.316193 
	C381.797760,138.937241 378.090729,130.603439 373.148804,122.866257 
	C361.862183,105.195717 345.430664,93.287323 327.093475,84.143333 
	C290.334412,65.813110 250.788651,58.548954 210.123123,57.151524 
	C194.735519,56.622753 179.265808,57.871777 163.856689,58.727844 
	C141.723480,59.957478 120.103096,64.272514 98.960426,70.850761 
	C71.937920,79.258446 46.890945,91.263405 27.202436,112.316597 
	C15.424026,124.911423 8.972569,139.863510 8.964293,157.314468 
	C8.952278,182.644928 9.186809,207.977859 8.894733,233.304871 
	C8.731871,247.427338 11.042939,260.767426 18.464003,272.931152 
	C19.901979,275.288116 19.507719,276.936890 18.165686,279.202087 
	C12.115956,289.413239 8.893190,300.525421 8.877383,312.422424 
	C8.835314,344.085327 8.723001,375.750214 9.033080,407.410461 
	C9.166539,421.037262 13.594901,433.509735 21.764866,444.537994 
	C37.508087,465.789001 59.320312,478.506165 83.320786,488.018799 
	C111.507492,499.190674 140.894791,505.135193 171.090179,506.801849 
	C184.994217,507.569336 198.973480,507.569824 212.897003,507.168213 
	C221.409698,506.922668 229.381058,506.764984 235.245056,514.281433 
	C236.031998,515.290100 237.351898,515.892700 238.449356,516.648010 
	C263.786377,534.085815 292.559021,540.909241 322.602234,542.647400 
	C353.444000,544.431885 383.573639,539.811646 412.582855,528.926514 
	C440.406830,518.486084 465.630219,504.085724 484.195984,480.083405 
	C494.026886,467.373779 500.787354,453.299774 502.135406,436.054779 
	C502.078461,414.041290 502.021484,392.027832 502.076721,369.080963 
	C501.573608,358.672791 502.308167,348.021179 500.318420,337.905426 
	C495.692200,314.386047 480.433533,298.180573 460.653778,285.982117 
	C442.413269,274.732910 422.218872,268.971100 401.089386,266.291260 
	C394.088043,265.403259 387.051392,264.793579 380.426666,264.098206 
	C381.101501,258.053589 381.722015,252.495392 382.690308,246.067627 
z"/>
<path fill="#F3BC18" opacity="1.000000" stroke="none" 
	d="
M501.877258,436.954926 
	C500.787354,453.299774 494.026886,467.373779 484.195984,480.083405 
	C465.630219,504.085724 440.406830,518.486084 412.582855,528.926514 
	C383.573639,539.811646 353.444000,544.431885 322.602234,542.647400 
	C292.559021,540.909241 263.786377,534.085815 238.449356,516.648010 
	C237.351898,515.892700 236.031998,515.290100 235.245056,514.281433 
	C229.381058,506.764984 221.409698,506.922668 212.897003,507.168213 
	C198.973480,507.569824 184.994217,507.569336 171.090179,506.801849 
	C140.894791,505.135193 111.507492,499.190674 83.320786,488.018799 
	C59.320312,478.506165 37.508087,465.789001 21.764866,444.537994 
	C13.594901,433.509735 9.166539,421.037262 9.033080,407.410461 
	C8.723001,375.750214 8.835314,344.085327 8.877383,312.422424 
	C8.893190,300.525421 12.115956,289.413239 18.165686,279.202087 
	C19.507719,276.936890 19.901979,275.288116 18.464003,272.931152 
	C11.042939,260.767426 8.731871,247.427338 8.894733,233.304871 
	C9.186809,207.977859 8.952278,182.644928 8.964293,157.314468 
	C8.972569,139.863510 15.424026,124.911423 27.202436,112.316597 
	C46.890945,91.263405 71.937920,79.258446 98.960426,70.850761 
	C120.103096,64.272514 141.723480,59.957478 163.856689,58.727844 
	C179.265808,57.871777 194.735519,56.622753 210.123123,57.151524 
	C250.788651,58.548954 290.334412,65.813110 327.093475,84.143333 
	C345.430664,93.287323 361.862183,105.195717 373.148804,122.866257 
	C378.090729,130.603439 381.797760,138.937241 382.003601,148.879120 
	C381.383575,150.056595 381.030029,150.670975 381.029480,151.285675 
	C381.001831,182.043976 380.990204,212.802307 381.060120,243.560471 
	C381.062683,244.687012 381.896271,245.811661 382.342560,246.937195 
	C381.722015,252.495392 381.101501,258.053589 380.426666,264.098206 
	C387.051392,264.793579 394.088043,265.403259 401.089386,266.291260 
	C422.218872,268.971100 442.413269,274.732910 460.653778,285.982117 
	C480.433533,298.180573 495.692200,314.386047 500.318420,337.905426 
	C502.308167,348.021179 501.573608,358.672791 501.731628,369.846008 
	C501.263092,371.254913 501.032379,371.898621 501.031708,372.542603 
	C501.009674,392.936890 500.996704,413.331238 501.043976,433.725433 
	C501.046448,434.802582 501.587128,435.878448 501.877258,436.954926 
M239.529053,484.635590 
	C239.028076,485.439697 238.159256,486.211487 238.085403,487.053070 
	C237.579666,492.816956 241.518784,494.660461 248.828461,492.152039 
	C258.430054,497.365601 267.599243,503.718140 277.721252,507.560944 
	C300.384705,516.165100 324.092834,518.057861 348.279144,516.283813 
	C365.280670,515.036682 381.885529,512.287659 397.961884,506.749573 
	C422.812653,498.188782 445.404419,486.044830 462.864990,465.632996 
	C476.413483,449.794434 478.719421,431.415100 476.434204,411.243164 
	C462.086365,427.136353 445.042389,438.676331 426.372559,447.745392 
	C387.185547,466.780762 345.765137,474.148804 302.384552,470.167816 
	C278.883850,468.011139 256.676422,461.654419 236.554398,448.933075 
	C233.510727,447.008850 230.483887,445.058014 226.678436,442.627106 
	C227.264191,448.847382 227.699020,454.230408 228.292221,459.595947 
	C229.341949,469.090881 234.872574,476.481628 239.529053,484.635590 
M179.247620,228.951859 
	C179.946228,229.295547 180.642822,229.933838 181.343750,229.938599 
	C191.337631,230.006744 201.332550,230.030960 211.325623,229.920166 
	C212.209534,229.910370 213.082169,228.884811 214.656265,227.857849 
	C215.307083,227.732391 215.954483,227.519806 216.609222,227.494049 
	C242.719711,226.466736 268.109161,221.590073 292.680206,212.758408 
	C311.465881,206.006210 329.075256,197.250092 343.119568,182.408112 
	C355.456146,169.370865 357.540741,153.184555 347.686737,138.130753 
	C340.195129,126.685989 329.226105,119.030472 317.327057,112.812454 
	C282.353271,94.536354 244.429047,88.658737 205.619965,87.366295 
	C192.393021,86.925797 179.086243,88.013725 165.850128,88.908836 
	C142.566223,90.483444 119.819603,95.025215 97.820900,102.878166 
	C79.514595,109.413048 61.952843,117.540627 48.936008,132.591171 
	C36.496052,146.974686 34.145191,160.263199 43.692219,174.863953 
	C48.055279,181.536606 53.828735,187.766891 60.194366,192.562759 
	C81.657272,208.733002 106.737160,216.876938 132.691452,222.024841 
	C147.944962,225.050308 163.570023,226.202591 179.247620,228.951859 
M279.093689,312.564178 
	C260.634491,322.247345 243.966995,334.143585 232.345840,351.871094 
	C220.750900,369.558624 217.180695,387.957916 229.276459,406.984985 
	C235.292862,416.449005 243.663025,423.516144 253.550354,428.711426 
	C280.773712,443.015930 309.897125,446.676544 340.173096,444.268707 
	C368.732758,441.997406 395.797272,434.675018 421.086639,421.125763 
	C439.072235,411.489716 454.915436,399.211365 466.169983,381.934967 
	C477.347687,364.776520 480.127838,346.794098 468.526215,328.621857 
	C458.260986,312.542908 442.458466,303.814728 424.967285,297.941162 
	C403.068390,290.587433 380.412933,289.385040 357.563751,291.024933 
	C330.259460,292.984528 304.311127,300.107605 279.093689,312.564178 
M38.839218,247.496796 
	C41.245148,253.088287 42.820179,259.253937 46.212765,264.163635 
	C56.400208,278.906708 71.480011,287.660553 87.459488,294.584229 
	C128.253387,312.259583 171.206329,316.650909 215.221115,315.060791 
	C226.085678,314.668335 234.428253,311.263489 243.060791,304.781586 
	C271.314301,283.566956 303.933289,272.479248 338.561279,267.197906 
	C343.581696,266.432190 346.457397,264.572449 348.473602,260.421844 
	C349.417145,258.479462 350.451172,256.571930 351.256989,254.573151 
	C356.444519,241.705811 352.739502,228.349854 354.028503,215.458359 
	C353.208557,215.177795 353.000916,215.037018 352.920898,215.089783 
	C351.679352,215.908676 350.409760,216.694595 349.232483,217.599777 
	C337.127502,226.907013 323.823822,234.091095 309.654297,239.656799 
	C267.464813,256.228607 223.612076,261.588715 178.544540,259.387787 
	C156.568085,258.314545 134.951309,255.243134 113.659073,249.870285 
	C91.400993,244.253708 70.193214,236.031998 50.924400,223.327591 
	C46.705807,220.546188 42.719280,217.412811 38.758080,214.537491 
	C38.758080,225.431961 38.758080,236.030518 38.839218,247.496796 
M189.450195,427.175690 
	C134.954239,425.110748 82.894615,415.187592 38.065239,379.815308 
	C38.065239,387.463196 38.249722,394.550232 38.025993,401.624359 
	C37.589588,415.423462 43.364037,426.395233 53.197285,435.484985 
	C68.061516,449.225311 86.023613,457.423798 104.963577,463.674988 
	C131.474014,472.424835 158.842163,476.221100 186.652298,477.156952 
	C193.056870,477.372467 199.474869,477.188751 205.181564,477.188751 
	C202.878036,460.248260 200.658691,443.926910 198.379242,427.163605 
	C195.689240,427.163605 193.058777,427.163605 189.450195,427.175690 
M119.030167,386.494202 
	C144.405243,393.184723 170.151779,396.713593 196.843658,396.357666 
	C193.806808,378.318298 197.075043,362.042328 205.657898,346.353638 
	C145.886169,346.417877 89.360771,337.888611 40.549023,301.437317 
	C33.706383,325.272369 40.062916,344.272339 59.844925,359.150848 
	C77.451660,372.393402 97.231834,380.569702 119.030167,386.494202 
z"/>
<path fill="#F6B300" opacity="1.000000" stroke="none" 
	d="
M382.516418,246.502411 
	C381.896271,245.811661 381.062683,244.687012 381.060120,243.560471 
	C380.990204,212.802307 381.001831,182.043976 381.029480,151.285675 
	C381.030029,150.670975 381.383575,150.056595 381.879089,149.261993 
	C382.392548,150.205093 382.779999,151.328262 382.779785,152.451370 
	C382.774017,183.656784 382.728912,214.862213 382.516418,246.502411 
z"/>
<path fill="#F8B901" opacity="1.000000" stroke="none" 
	d="
M502.006348,436.504852 
	C501.587128,435.878448 501.046448,434.802582 501.043976,433.725433 
	C500.996704,413.331238 501.009674,392.936890 501.031708,372.542603 
	C501.032379,371.898621 501.263092,371.254913 501.675537,370.312714 
	C502.021484,392.027832 502.078461,414.041290 502.006348,436.504852 
z"/>
<path fill="#FEFEFD" opacity="1.000000" stroke="none" 
	d="
M179.027954,228.197403 
	C163.570023,226.202591 147.944962,225.050308 132.691452,222.024841 
	C106.737160,216.876938 81.657272,208.733002 60.194366,192.562759 
	C53.828735,187.766891 48.055279,181.536606 43.692219,174.863953 
	C34.145191,160.263199 36.496052,146.974686 48.936008,132.591171 
	C61.952843,117.540627 79.514595,109.413048 97.820900,102.878166 
	C119.819603,95.025215 142.566223,90.483444 165.850128,88.908836 
	C179.086243,88.013725 192.393021,86.925797 205.619965,87.366295 
	C244.429047,88.658737 282.353271,94.536354 317.327057,112.812454 
	C329.226105,119.030472 340.195129,126.685989 347.686737,138.130753 
	C357.540741,153.184555 355.456146,169.370865 343.119568,182.408112 
	C329.075256,197.250092 311.465881,206.006210 292.680206,212.758408 
	C268.109161,221.590073 242.719711,226.466736 216.609222,227.494049 
	C215.954483,227.519806 215.307083,227.732391 213.846497,228.077454 
	C201.700455,228.263824 190.364212,228.230621 179.027954,228.197403 
z"/>
<path fill="#FEFEFD" opacity="1.000000" stroke="none" 
	d="
M279.414307,312.376282 
	C304.311127,300.107605 330.259460,292.984528 357.563751,291.024933 
	C380.412933,289.385040 403.068390,290.587433 424.967285,297.941162 
	C442.458466,303.814728 458.260986,312.542908 468.526215,328.621857 
	C480.127838,346.794098 477.347687,364.776520 466.169983,381.934967 
	C454.915436,399.211365 439.072235,411.489716 421.086639,421.125763 
	C395.797272,434.675018 368.732758,441.997406 340.173096,444.268707 
	C309.897125,446.676544 280.773712,443.015930 253.550354,428.711426 
	C243.663025,423.516144 235.292862,416.449005 229.276459,406.984985 
	C217.180695,387.957916 220.750900,369.558624 232.345840,351.871094 
	C243.966995,334.143585 260.634491,322.247345 279.414307,312.376282 
z"/>
<path fill="#FEFDFC" opacity="1.000000" stroke="none" 
	d="
M38.798649,247.062943 
	C38.758080,236.030518 38.758080,225.431961 38.758080,214.537491 
	C42.719280,217.412811 46.705807,220.546188 50.924400,223.327591 
	C70.193214,236.031998 91.400993,244.253708 113.659073,249.870285 
	C134.951309,255.243134 156.568085,258.314545 178.544540,259.387787 
	C223.612076,261.588715 267.464813,256.228607 309.654297,239.656799 
	C323.823822,234.091095 337.127502,226.907013 349.232483,217.599777 
	C350.409760,216.694595 351.679352,215.908676 352.920898,215.089783 
	C353.000916,215.037018 353.208557,215.177795 354.028503,215.458359 
	C352.739502,228.349854 356.444519,241.705811 351.256989,254.573151 
	C350.451172,256.571930 349.417145,258.479462 348.473602,260.421844 
	C346.457397,264.572449 343.581696,266.432190 338.561279,267.197906 
	C303.933289,272.479248 271.314301,283.566956 243.060791,304.781586 
	C234.428253,311.263489 226.085678,314.668335 215.221115,315.060791 
	C171.206329,316.650909 128.253387,312.259583 87.459488,294.584229 
	C71.480011,287.660553 56.400208,278.906708 46.212765,264.163635 
	C42.820179,259.253937 41.245148,253.088287 38.798649,247.062943 
z"/>
<path fill="#FEFDFB" opacity="1.000000" stroke="none" 
	d="
M239.960876,484.068787 
	C234.872574,476.481628 229.341949,469.090881 228.292221,459.595947 
	C227.699020,454.230408 227.264191,448.847382 226.678436,442.627106 
	C230.483887,445.058014 233.510727,447.008850 236.554398,448.933075 
	C256.676422,461.654419 278.883850,468.011139 302.384552,470.167816 
	C345.765137,474.148804 387.185547,466.780762 426.372559,447.745392 
	C445.042389,438.676331 462.086365,427.136353 476.434204,411.243164 
	C478.719421,431.415100 476.413483,449.794434 462.864990,465.632996 
	C445.404419,486.044830 422.812653,498.188782 397.961884,506.749573 
	C381.885529,512.287659 365.280670,515.036682 348.279144,516.283813 
	C324.092834,518.057861 300.384705,516.165100 277.721252,507.560944 
	C267.599243,503.718140 258.430054,497.365601 248.356537,491.721741 
	C245.243378,488.883911 242.602127,486.476349 239.960876,484.068787 
z"/>
<path fill="#FEFDFB" opacity="1.000000" stroke="none" 
	d="
M189.939255,427.169647 
	C193.058777,427.163605 195.689240,427.163605 198.379242,427.163605 
	C200.658691,443.926910 202.878036,460.248260 205.181564,477.188751 
	C199.474869,477.188751 193.056870,477.372467 186.652298,477.156952 
	C158.842163,476.221100 131.474014,472.424835 104.963577,463.674988 
	C86.023613,457.423798 68.061516,449.225311 53.197285,435.484985 
	C43.364037,426.395233 37.589588,415.423462 38.025993,401.624359 
	C38.249722,394.550232 38.065239,387.463196 38.065239,379.815308 
	C82.894615,415.187592 134.954239,425.110748 189.939255,427.169647 
z"/>
<path fill="#FEFDFB" opacity="1.000000" stroke="none" 
	d="
M118.642029,386.375549 
	C97.231834,380.569702 77.451660,372.393402 59.844925,359.150848 
	C40.062916,344.272339 33.706383,325.272369 40.549023,301.437317 
	C89.360771,337.888611 145.886169,346.417877 205.657898,346.353638 
	C197.075043,362.042328 193.806808,378.318298 196.843658,396.357666 
	C170.151779,396.713593 144.405243,393.184723 118.642029,386.375549 
z"/>
<path fill="#F3B700" opacity="1.000000" stroke="none" 
	d="
M179.137787,228.574631 
	C190.364212,228.230621 201.700455,228.263824 213.498383,228.314026 
	C213.082169,228.884811 212.209534,229.910370 211.325623,229.920166 
	C201.332550,230.030960 191.337631,230.006744 181.343750,229.938599 
	C180.642822,229.933838 179.946228,229.295547 179.137787,228.574631 
z"/>
<path fill="#F3C126" opacity="1.000000" stroke="none" 
	d="
M239.744965,484.352173 
	C242.602127,486.476349 245.243378,488.883911 248.054230,491.582733 
	C241.518784,494.660461 237.579666,492.816956 238.085403,487.053070 
	C238.159256,486.211487 239.028076,485.439697 239.744965,484.352173 
z"/>
</svg>