<svg version="1.1" id="Layer_1" xmlns="http://www.w3.org/2000/svg" xmlns:xlink="http://www.w3.org/1999/xlink" x="0px" y="0px"
	 width="100%" viewBox="0 0 576 550" enable-background="new 0 0 576 550" xml:space="preserve">
<path fill="#FDFCFB" opacity="1.000000" stroke="none" 
	d="
M577.000000,139.000000 
	C577.000000,276.666656 577.000000,413.833282 577.000000,551.000000 
	C385.000031,551.000000 193.000076,551.000000 1.000088,551.000000 
	C1.000059,367.666718 1.000059,184.333450 1.000029,1.000138 
	C192.999924,1.000092 384.999847,1.000092 576.999878,1.000046 
	C577.000000,46.833332 577.000000,92.666664 577.000000,139.000000 
M513.974121,63.301517 
	C506.581085,52.743484 499.150513,42.219673 488.032837,34.270199 
	C477.651520,25.484053 466.003815,18.903772 452.660522,13.935800 
	C449.446228,12.937058 446.231964,11.938316 442.343689,10.572786 
	C436.230499,9.453513 430.117310,8.334239 423.147919,6.978809 
	C418.992432,6.733423 414.837067,6.275968 410.681427,6.273805 
	C317.532288,6.225312 224.382721,6.064062 131.234161,6.296715 
	C92.311920,6.393929 60.055038,21.765493 35.010590,51.530125 
	C17.690742,72.114288 8.205794,96.141846 5.622900,123.730560 
	C5.476304,156.198669 5.320325,188.666748 5.217672,221.134995 
	C5.213597,222.423920 5.716858,223.714447 5.930917,225.801529 
	C7.928634,230.873871 10.013549,235.914200 11.891768,241.030411 
	C13.040771,244.160278 14.714015,247.404449 14.722300,250.600998 
	C14.889030,314.930573 14.834066,379.260712 14.854908,443.590729 
	C14.864123,472.036407 35.128422,492.545685 63.606018,492.574799 
	C148.101242,492.661224 232.596695,492.638153 317.091797,492.501221 
	C321.676758,492.493805 324.602203,493.891693 327.682495,497.316711 
	C359.825623,533.057373 400.303650,548.621826 447.757904,543.452515 
	C493.656677,538.452637 528.414368,514.751709 551.655151,474.833374 
	C567.229797,448.082336 572.146301,419.028473 567.339966,388.553314 
	C562.789917,359.703949 549.744080,335.008667 529.211609,314.195099 
	C527.201355,312.157379 525.227783,308.975983 525.177795,306.289398 
	C524.818298,286.963593 524.920959,267.628265 525.012146,248.296570 
	C525.020020,246.619690 525.617798,244.669586 526.595398,243.319962 
	C531.432373,236.642197 534.282959,229.192490 534.506348,221.051880 
	C534.825867,209.402771 534.511597,197.736282 534.762024,185.179550 
	C534.668762,181.094238 534.575500,177.008911 534.664551,172.045242 
	C534.600952,169.055893 534.537354,166.066559 534.768921,162.170898 
	C534.655334,154.754272 534.541748,147.337662 534.617859,139.034912 
	C535.284485,114.649857 530.420532,91.574776 518.235840,70.259186 
	C517.460815,68.903381 516.230835,67.807625 515.329956,65.977837 
	C514.866455,65.319206 514.402954,64.660576 513.974121,63.301517 
z"/>
<path fill="#FD780E" opacity="1.000000" stroke="none" 
	d="
M534.468018,186.077209 
	C534.511597,197.736282 534.825867,209.402771 534.506348,221.051880 
	C534.282959,229.192490 531.432373,236.642197 526.595398,243.319962 
	C525.617798,244.669586 525.020020,246.619690 525.012146,248.296570 
	C524.920959,267.628265 524.818298,286.963593 525.177795,306.289398 
	C525.227783,308.975983 527.201355,312.157379 529.211609,314.195099 
	C549.744080,335.008667 562.789917,359.703949 567.339966,388.553314 
	C572.146301,419.028473 567.229797,448.082336 551.655151,474.833374 
	C528.414368,514.751709 493.656677,538.452637 447.757904,543.452515 
	C400.303650,548.621826 359.825623,533.057373 327.682495,497.316711 
	C324.602203,493.891693 321.676758,492.493805 317.091797,492.501221 
	C232.596695,492.638153 148.101242,492.661224 63.606018,492.574799 
	C35.128422,492.545685 14.864123,472.036407 14.854908,443.590729 
	C14.834066,379.260712 14.889030,314.930573 14.722300,250.600998 
	C14.714015,247.404449 13.040771,244.160278 11.891768,241.030411 
	C10.013549,235.914200 7.928634,230.873871 6.243008,225.100037 
	C6.690625,223.422485 6.943933,222.446472 6.944601,221.470306 
	C6.966097,190.030258 6.976408,158.590164 6.920150,127.150200 
	C6.917659,125.758568 6.274639,124.368088 5.929976,122.977066 
	C8.205794,96.141846 17.690742,72.114288 35.010590,51.530125 
	C60.055038,21.765493 92.311920,6.393929 131.234161,6.296715 
	C224.382721,6.064062 317.532288,6.225312 410.681427,6.273805 
	C414.837067,6.275968 418.992432,6.733423 423.621277,7.435651 
	C423.725342,9.260131 423.602142,11.646213 422.941071,11.805919 
	C420.895081,12.300186 417.760101,12.843348 416.647308,11.745842 
	C413.876221,9.012817 410.863098,8.920706 407.503601,8.981439 
	C403.180908,9.059586 398.833405,8.746758 394.542633,9.125066 
	C392.814697,9.277419 391.146698,10.718851 389.561890,11.744295 
	C387.143402,13.309171 384.820801,15.022237 381.705811,17.197201 
	C381.127472,13.475891 380.809143,11.427741 380.438934,9.045576 
	C367.981354,9.521217 355.523407,6.421891 344.619324,15.490008 
	C338.805298,20.325138 335.020905,25.884935 332.506622,32.986519 
	C328.618866,32.983776 325.188782,32.914089 321.822601,32.404156 
	C319.634857,26.210922 323.222290,24.244858 327.717987,23.293894 
	C327.974670,21.092609 328.232330,19.290560 328.384613,17.479649 
	C328.602112,14.893183 328.742401,12.300229 328.915680,9.710045 
	C325.863342,9.748887 322.804901,9.685560 319.761230,9.868608 
	C318.180847,9.963654 316.250916,11.261736 315.119629,10.707790 
	C305.271240,5.885540 296.909515,10.409432 287.896454,14.613632 
	C288.918579,15.378576 289.753418,15.808208 290.329834,16.464724 
	C296.626251,23.636093 299.455078,24.387699 308.012909,21.624176 
	C309.342499,21.194815 311.657684,21.411879 312.439148,22.289673 
	C313.453857,23.429495 313.762848,25.546722 313.690125,27.213329 
	C313.607086,29.115530 312.770294,30.984835 311.785950,32.974846 
	C271.827332,33.131664 232.343719,33.231461 192.860489,33.145775 
	C189.422180,33.138313 187.225082,34.041962 185.632507,37.060928 
	C182.839569,42.355400 179.627319,47.437214 176.994095,52.805958 
	C163.932495,79.436737 158.402435,107.939842 156.930664,137.288757 
	C156.283783,150.188431 156.821762,163.147537 156.821762,176.656418 
	C170.358932,176.656418 183.970932,176.692154 197.581604,176.573502 
	C198.460449,176.565857 199.569229,175.538147 200.165726,174.697372 
	C207.579330,164.247833 217.972656,159.147751 230.458466,159.009750 
	C257.277527,158.713333 284.108459,158.599854 310.921875,159.096863 
	C322.524963,159.311951 332.456757,164.242706 339.666565,173.922943 
	C340.728943,175.349335 343.044281,176.554810 344.822083,176.614838 
	C353.309265,176.901474 361.810944,176.759262 370.307495,176.766312 
	C374.744720,176.769989 379.181946,176.766953 383.841431,176.766953 
	C384.295074,146.279739 383.775024,116.868202 376.226074,88.027992 
	C371.083893,68.382668 363.682098,49.758373 351.991791,32.622978 
	C350.741730,26.795408 352.903198,23.186924 358.258545,22.131716 
	C362.868713,21.223326 367.523468,20.541409 372.368378,19.723949 
	C372.364136,19.708551 372.423645,20.172958 372.613434,20.576000 
	C373.878357,23.262083 374.596405,26.641586 376.679535,28.336149 
	C377.850525,29.288719 381.272827,27.353218 383.714569,26.900534 
	C385.847076,26.505178 388.820984,25.388039 389.995941,26.343981 
	C391.678497,27.712946 392.062195,30.678368 392.572815,33.057518 
	C389.776276,33.152908 387.407379,33.152908 384.279755,33.152908 
	C409.044891,78.686783 412.230072,127.254677 411.226624,176.744507 
	C443.658173,176.744507 475.207428,176.744507 506.729156,176.744507 
	C508.643646,163.160812 506.569061,123.158890 502.989807,102.782425 
	C504.019775,101.283745 505.009888,100.141869 506.214478,99.282196 
	C511.299927,101.818016 513.770630,100.792732 514.990356,95.706596 
	C515.591187,93.201180 515.679688,90.572899 516.032593,87.654999 
	C516.376831,86.206520 516.688416,85.103256 516.973389,83.679024 
	C516.297913,82.572144 515.648926,81.786224 515.000000,81.000153 
	C515.000000,81.000000 515.000000,80.999695 514.841919,80.685440 
	C509.384583,75.581108 509.405090,75.596352 514.098816,69.278366 
	C514.659668,68.523415 514.850281,67.493401 515.212524,66.590889 
	C516.230835,67.807625 517.460815,68.903381 518.235840,70.259186 
	C530.420532,91.574776 535.284485,114.649857 534.202454,139.667786 
	C533.558777,147.273056 533.294983,154.244766 533.164490,161.218979 
	C533.153076,161.830017 534.016541,162.457413 534.473755,163.077209 
	C534.537354,166.066559 534.600952,169.055893 534.246460,172.662445 
	C534.041565,177.545502 534.254822,181.811356 534.468018,186.077209 
M191.320587,203.671921 
	C190.948944,203.607193 190.577316,203.542465 189.682556,202.730072 
	C188.912064,202.491959 188.141968,202.047256 187.371033,202.045792 
	C165.332886,202.003616 143.294571,201.984329 121.256676,202.066238 
	C120.178307,202.070236 119.103462,203.023148 117.353310,203.744370 
	C116.893219,203.675858 116.433121,203.607330 115.686691,202.836060 
	C114.782310,202.557907 113.878395,202.038589 112.973473,202.036850 
	C90.200951,201.993057 67.428223,201.978668 44.655979,202.069626 
	C43.350998,202.074829 42.049767,203.017654 40.204582,203.852203 
	C36.617908,205.072708 33.478756,206.620758 32.765224,210.986481 
	C30.921646,222.266357 34.736980,229.355606 45.179153,233.982361 
	C45.471710,233.921417 45.764267,233.860489 46.980530,233.673584 
	C95.493347,233.673584 144.006165,233.673584 192.856094,233.673584 
	C192.856094,223.240814 192.856094,213.466324 192.812302,203.173996 
	C192.494766,203.271652 192.177231,203.369308 191.320587,203.671921 
M348.156128,234.270645 
	C348.439117,234.174377 348.722076,234.078110 349.919678,233.759537 
	C396.528595,233.734085 443.137512,233.713150 489.746429,233.680038 
	C501.487122,233.671707 507.916809,226.910889 507.392700,215.177277 
	C506.998291,206.347336 505.412079,204.524490 496.719147,202.760986 
	C491.062012,203.007492 485.404846,203.253983 478.883606,203.704391 
	C475.327881,203.619247 471.772186,203.534103 467.681244,202.714493 
	C462.705963,202.970154 457.730652,203.225800 452.059357,203.690445 
	C451.103943,203.608215 450.148529,203.525986 448.770111,202.769791 
	C447.449371,202.998383 446.128632,203.226974 444.111938,203.690063 
	C443.147095,203.608337 442.182220,203.526596 440.677704,202.710190 
	C439.736267,202.475082 438.795074,202.035751 437.853333,202.034500 
	C409.120880,201.996307 380.388306,201.981110 351.656067,202.064850 
	C350.362030,202.068619 349.070770,203.029404 347.385132,204.171677 
	C347.268494,210.559021 347.024231,216.947571 347.085571,223.333206 
	C347.119476,226.865067 347.665131,230.392029 348.156128,234.270645 
M222.398926,314.485077 
	C224.565933,313.758057 225.405273,312.884796 223.380844,310.820801 
	C219.887665,307.259277 215.164337,306.178314 209.216248,307.872284 
	C194.243256,295.623810 191.780594,278.847900 193.081116,261.032318 
	C142.360886,261.032318 92.465965,261.032318 42.217903,261.032318 
	C42.217903,262.186951 42.218178,262.991028 42.217865,263.795135 
	C42.194176,324.274567 42.137711,384.754028 42.174793,445.233398 
	C42.182060,457.086456 51.214378,465.468506 63.563141,465.459900 
	C141.203354,465.405762 218.843552,465.347290 296.483765,465.290710 
	C299.586395,465.288452 302.689026,465.290466 305.900787,465.290466 
	C282.608185,405.638397 292.331299,352.608978 339.096832,309.810333 
	C385.799438,267.069275 439.816772,262.792267 497.001678,289.037872 
	C497.001678,279.495148 497.001678,270.169189 497.001678,260.931213 
	C446.854156,260.931213 397.249390,260.931213 346.999969,260.931213 
	C346.999969,266.456421 347.269989,271.759247 346.953278,277.026825 
	C345.575378,299.943909 326.385986,318.140839 303.439819,318.259491 
	C281.447723,318.373199 259.451324,318.487122 237.464325,318.134613 
	C232.294388,318.051727 227.154510,316.093689 222.398926,314.485077 
M348.813568,480.672913 
	C378.027130,510.791809 413.316101,523.089050 454.595886,514.823425 
	C510.574554,503.614624 548.499146,450.350983 540.863647,395.068817 
	C531.096130,324.350525 455.999420,281.213226 390.173676,308.817139 
	C352.208069,324.737946 329.127441,353.469147 322.472107,393.944489 
	C317.141541,426.363007 327.423187,455.099121 348.813568,480.672913 
M39.404903,97.980484 
	C37.877239,103.241875 35.293076,108.446854 35.008640,113.774620 
	C33.900936,134.523102 33.518394,155.310379 32.903587,176.084351 
	C32.891785,176.483185 33.340145,176.895630 33.163372,176.588409 
	C65.367577,176.588409 97.085762,176.588409 129.239365,176.588409 
	C127.397865,126.479294 132.109650,78.210014 155.912506,33.426598 
	C91.578117,28.137114 56.749363,56.056881 39.404903,97.980484 
M225.838867,286.690735 
	C229.919861,288.328461 233.977280,291.307587 238.085770,291.379761 
	C259.884918,291.762665 281.701935,291.658386 303.502167,291.208618 
	C312.953491,291.013611 320.044495,283.295654 320.097778,273.875977 
	C320.240967,248.570297 320.187225,223.262939 320.083740,197.956772 
	C320.054108,190.716644 315.343903,185.994064 308.193329,185.978745 
	C283.053558,185.924881 257.913330,185.962524 232.773682,186.064240 
	C225.308563,186.094437 220.153534,191.149826 220.122147,198.587097 
	C220.018875,223.060730 220.065430,247.535004 220.064392,272.009033 
	C220.064163,277.370758 221.599884,282.177094 225.838867,286.690735 
M532.201782,133.053665 
	C532.342224,133.399307 532.482666,133.744949 532.623108,134.090591 
	C532.594971,133.657547 532.566772,133.224518 532.201782,133.053665 
z"/>
<path fill="#FD760C" opacity="1.000000" stroke="none" 
	d="
M393.000458,32.962128 
	C392.062195,30.678368 391.678497,27.712946 389.995941,26.343981 
	C388.820984,25.388039 385.847076,26.505178 383.714569,26.900534 
	C381.272827,27.353218 377.850525,29.288719 376.679535,28.336149 
	C374.596405,26.641586 373.878357,23.262083 372.613434,20.576000 
	C372.423645,20.172958 372.364136,19.708551 372.368378,19.723949 
	C367.523468,20.541409 362.868713,21.223326 358.258545,22.131716 
	C352.903198,23.186924 350.741730,26.795408 351.616974,32.684273 
	C350.499054,33.064735 349.750000,33.000355 349.000366,32.549721 
	C349.273285,28.763794 347.130005,27.087887 344.330566,27.443064 
	C343.417999,27.558844 342.923340,30.968533 341.778931,32.961018 
	C338.535004,33.006729 335.749664,32.963154 332.964325,32.919579 
	C335.020905,25.884935 338.805298,20.325138 344.619324,15.490008 
	C355.523407,6.421891 367.981354,9.521217 380.438934,9.045576 
	C380.809143,11.427741 381.127472,13.475891 381.705811,17.197201 
	C384.820801,15.022237 387.143402,13.309171 389.561890,11.744295 
	C391.146698,10.718851 392.814697,9.277419 394.542633,9.125066 
	C398.833405,8.746758 403.180908,9.059586 407.503601,8.981439 
	C410.863098,8.920706 413.876221,9.012817 416.647308,11.745842 
	C417.760101,12.843348 420.895081,12.300186 422.941071,11.805919 
	C423.602142,11.646213 423.725342,9.260131 424.049377,7.553730 
	C430.117310,8.334239 436.230499,9.453513 442.468903,11.059885 
	C442.173340,13.157399 441.104797,14.988124 441.552094,16.303299 
	C441.867493,17.230764 444.448975,18.191231 445.652039,17.848791 
	C448.300476,17.094952 450.716736,15.525556 453.227753,14.289011 
	C466.003815,18.903772 477.651520,25.484053 487.688538,34.701550 
	C486.542511,38.815727 485.740814,42.498558 484.803253,46.805485 
	C492.220184,44.417297 495.135895,50.972763 500.133209,52.909332 
	C500.557922,53.073925 501.050629,54.215065 500.870575,54.610851 
	C498.982605,58.760677 501.062134,61.506657 503.578430,63.999626 
	C498.332520,63.476109 495.225220,65.026939 494.615723,70.382294 
	C494.469086,71.670746 492.909698,72.798401 492.047607,73.608009 
	C494.155792,66.181778 492.692322,63.822029 487.036957,64.650269 
	C489.183716,62.550125 491.422241,60.928791 493.352936,58.999435 
	C494.434540,57.918537 495.893799,56.074886 495.595520,55.026489 
	C495.169067,53.527454 493.503479,51.974350 491.984772,51.277718 
	C488.875610,49.851543 483.973328,52.275589 482.311279,55.302368 
	C481.535522,56.715034 480.123596,57.778347 479.041473,58.627983 
	C479.080566,56.771557 479.605530,54.361351 478.965363,53.996708 
	C477.658997,53.252632 475.704376,53.411449 474.057587,53.585087 
	C473.006409,53.695923 472.028320,54.500084 470.692078,54.895805 
	C465.230682,51.420174 460.392426,47.411335 454.888184,44.813484 
	C446.842651,41.016171 438.319275,38.231342 430.045471,34.625107 
	C430.078064,32.599369 430.064728,30.963495 430.051392,29.327621 
	C428.478607,29.396969 426.503784,28.918722 425.448761,29.693291 
	C424.440857,30.433243 424.390350,32.477249 423.458252,34.004517 
	C417.331879,33.686913 411.666290,33.312840 406.000610,32.537201 
	C405.640564,30.507597 405.280609,28.879557 404.920624,27.251514 
	C404.280304,27.338547 403.639984,27.425579 402.999664,27.512611 
	C402.999664,29.328789 402.999664,31.144964 402.554932,33.063919 
	C399.073608,33.098511 396.037048,33.030319 393.000458,32.962128 
z"/>
<path fill="#FD780E" opacity="1.000000" stroke="none" 
	d="
M504.000000,63.999390 
	C501.062134,61.506657 498.982605,58.760677 500.870575,54.610851 
	C501.050629,54.215065 500.557922,53.073925 500.133209,52.909332 
	C495.135895,50.972763 492.220184,44.417297 484.803253,46.805485 
	C485.740814,42.498558 486.542511,38.815727 487.741943,35.046097 
	C499.150513,42.219673 506.581085,52.743484 513.523560,63.651077 
	C511.048706,64.000633 509.024353,64.000618 506.625000,64.000389 
	C505.500000,63.999908 504.750000,63.999649 504.000000,63.999390 
z"/>
<path fill="#FB802B" opacity="1.000000" stroke="none" 
	d="
M5.776439,123.353813 
	C6.274639,124.368088 6.917659,125.758568 6.920150,127.150200 
	C6.976408,158.590164 6.966097,190.030258 6.944601,221.470306 
	C6.943933,222.446472 6.690625,223.422485 6.269416,224.701385 
	C5.716858,223.714447 5.213597,222.423920 5.217672,221.134995 
	C5.320325,188.666748 5.476304,156.198669 5.776439,123.353813 
z"/>
<path fill="#FD760C" opacity="1.000000" stroke="none" 
	d="
M507.000000,64.000618 
	C509.024353,64.000618 511.048706,64.000633 513.506226,64.001297 
	C514.402954,64.660576 514.866455,65.319206 515.271240,66.284363 
	C514.850281,67.493401 514.659668,68.523415 514.098816,69.278366 
	C509.405090,75.596352 509.384583,75.581108 514.417969,80.685593 
	C506.825958,81.112747 506.471954,81.637856 505.871796,88.593857 
	C505.710388,90.464470 503.999542,92.201401 503.048920,93.602768 
	C503.097839,89.935699 503.097839,86.665558 503.097839,82.959717 
	C500.807556,83.427330 499.404388,83.713814 498.037689,83.641426 
	C499.017395,81.762314 499.722260,79.171120 500.943390,78.899292 
	C507.798828,77.373215 509.014832,71.079376 512.171692,67.115799 
	C510.284607,65.979126 508.642303,64.989876 507.000000,64.000618 
z"/>
<path fill="#FD780E" opacity="1.000000" stroke="none" 
	d="
M452.944153,14.112406 
	C450.716736,15.525556 448.300476,17.094952 445.652039,17.848791 
	C444.448975,18.191231 441.867493,17.230764 441.552094,16.303299 
	C441.104797,14.988124 442.173340,13.157399 442.805908,11.243279 
	C446.231964,11.938316 449.446228,12.937058 452.944153,14.112406 
z"/>
<path fill="#F88A38" opacity="1.000000" stroke="none" 
	d="
M534.621338,162.624054 
	C534.016541,162.457413 533.153076,161.830017 533.164490,161.218979 
	C533.294983,154.244766 533.558777,147.273056 534.107605,140.110855 
	C534.541748,147.337662 534.655334,154.754272 534.621338,162.624054 
z"/>
<path fill="#F88A38" opacity="1.000000" stroke="none" 
	d="
M534.614990,185.628387 
	C534.254822,181.811356 534.041565,177.545502 534.155273,173.101624 
	C534.575500,177.008911 534.668762,181.094238 534.614990,185.628387 
z"/>
<path fill="#FDFDFC" opacity="1.000000" stroke="none" 
	d="
M222.000793,314.998322 
	C227.154510,316.093689 232.294388,318.051727 237.464325,318.134613 
	C259.451324,318.487122 281.447723,318.373199 303.439819,318.259491 
	C326.385986,318.140839 345.575378,299.943909 346.953278,277.026825 
	C347.269989,271.759247 346.999969,266.456421 346.999969,260.931213 
	C397.249390,260.931213 446.854156,260.931213 497.001678,260.931213 
	C497.001678,270.169189 497.001678,279.495148 497.001678,289.037872 
	C439.816772,262.792267 385.799438,267.069275 339.096832,309.810333 
	C292.331299,352.608978 282.608185,405.638397 305.900787,465.290466 
	C302.689026,465.290466 299.586395,465.288452 296.483765,465.290710 
	C218.843552,465.347290 141.203354,465.405762 63.563141,465.459900 
	C51.214378,465.468506 42.182060,457.086456 42.174793,445.233398 
	C42.137711,384.754028 42.194176,324.274567 42.217865,263.795135 
	C42.218178,262.991028 42.217903,262.186951 42.217903,261.032318 
	C92.465965,261.032318 142.360886,261.032318 193.081116,261.032318 
	C191.780594,278.847900 194.243256,295.623810 209.730957,308.254303 
	C214.164032,310.756989 218.082413,312.877655 222.000793,314.998322 
z"/>
<path fill="#FDFCFB" opacity="1.000000" stroke="none" 
	d="
M332.506622,32.986523 
	C335.749664,32.963154 338.535004,33.006729 342.120178,33.062202 
	C344.946991,33.028057 346.973938,32.982018 349.000916,32.935974 
	C349.750000,33.000355 350.499054,33.064735 351.622955,33.067818 
	C363.682098,49.758373 371.083893,68.382668 376.226074,88.027992 
	C383.775024,116.868202 384.295074,146.279739 383.841431,176.766953 
	C379.181946,176.766953 374.744720,176.769989 370.307495,176.766312 
	C361.810944,176.759262 353.309265,176.901474 344.822083,176.614838 
	C343.044281,176.554810 340.728943,175.349335 339.666565,173.922943 
	C332.456757,164.242706 322.524963,159.311951 310.921875,159.096863 
	C284.108459,158.599854 257.277527,158.713333 230.458466,159.009750 
	C217.972656,159.147751 207.579330,164.247833 200.165726,174.697372 
	C199.569229,175.538147 198.460449,176.565857 197.581604,176.573502 
	C183.970932,176.692154 170.358932,176.656418 156.821762,176.656418 
	C156.821762,163.147537 156.283783,150.188431 156.930664,137.288757 
	C158.402435,107.939842 163.932495,79.436737 176.994095,52.805958 
	C179.627319,47.437214 182.839569,42.355400 185.632507,37.060928 
	C187.225082,34.041962 189.422180,33.138313 192.860489,33.145775 
	C232.343719,33.231461 271.827332,33.131664 312.200928,33.064018 
	C315.980255,32.979321 318.869476,32.911858 321.758728,32.844398 
	C325.188782,32.914089 328.618866,32.983776 332.506622,32.986523 
z"/>
<path fill="#FDFCFA" opacity="1.000000" stroke="none" 
	d="
M348.566803,480.417114 
	C327.423187,455.099121 317.141541,426.363007 322.472107,393.944489 
	C329.127441,353.469147 352.208069,324.737946 390.173676,308.817139 
	C455.999420,281.213226 531.096130,324.350525 540.863647,395.068817 
	C548.499146,450.350983 510.574554,503.614624 454.595886,514.823425 
	C413.316101,523.089050 378.027130,510.791809 348.566803,480.417114 
M476.922058,444.724304 
	C467.922272,454.914001 456.512970,460.800598 443.154541,463.985535 
	C443.154541,447.113403 443.154541,430.697052 443.154541,413.897888 
	C446.874878,413.897888 450.337433,413.997070 453.792358,413.876495 
	C460.281525,413.650055 464.858032,408.877960 464.704956,402.650116 
	C464.555481,396.568848 460.083832,392.296295 453.666138,392.181946 
	C450.221527,392.120544 446.774933,392.171021 442.655670,392.171021 
	C444.036804,387.787567 440.463470,383.547089 445.926086,380.570496 
	C459.954315,372.926483 464.465576,356.578583 456.962158,342.223145 
	C451.661957,332.082886 439.490112,325.683838 428.189056,327.096375 
	C414.727051,328.779053 405.805847,336.871552 402.639587,350.272491 
	C400.118988,360.940765 404.819916,374.021484 414.502594,379.347809 
	C420.366791,382.573608 420.260590,386.461090 419.108887,392.121429 
	C415.759552,392.121429 412.473938,392.120789 409.188354,392.121552 
	C402.147491,392.123199 397.672516,396.354828 397.634308,403.046417 
	C397.599335,409.174103 402.243134,413.681519 408.905853,413.868164 
	C412.332550,413.964203 415.764221,413.885071 419.272095,413.885071 
	C419.272095,430.865875 419.272095,447.049561 419.272095,463.802612 
	C405.944458,460.286652 394.449432,454.964203 385.671448,444.544067 
	C386.395264,443.613220 386.922455,442.977570 387.404236,442.309174 
	C392.430542,435.335114 390.313690,428.540924 382.150696,425.841125 
	C376.146210,423.855255 370.126282,421.867981 364.009003,420.284027 
	C357.074097,418.488342 351.710602,422.757202 351.628601,429.859741 
	C351.551666,436.523560 351.516724,443.191650 351.666595,449.853241 
	C351.821899,456.754639 356.535889,460.616516 363.302338,459.152283 
	C366.118713,458.542786 367.826050,459.073059 369.789917,461.151489 
	C382.547028,474.652740 398.105286,483.030090 416.442566,486.266052 
	C418.804047,486.682800 421.313904,487.403564 423.277557,488.704285 
	C428.187561,491.956604 434.222687,492.178925 439.206299,489.096497 
	C441.095459,487.928040 443.303986,487.005371 445.482147,486.617249 
	C464.449188,483.237640 480.850128,475.131561 493.778015,460.621704 
	C495.442810,458.753174 496.805939,458.402649 499.277222,459.048004 
	C505.750671,460.738495 510.677643,457.155182 510.988464,450.477234 
	C511.289948,444.000488 510.996033,437.496033 511.126923,430.216766 
	C509.661560,427.382996 508.196198,424.549225 506.146057,421.143097 
	C504.052612,420.786987 501.775055,419.716431 499.898071,420.200226 
	C492.344086,422.147156 484.816467,424.301788 477.473572,426.924255 
	C472.881805,428.564148 471.554840,432.718170 472.982697,438.704865 
	C474.292389,440.482605 475.602112,442.260345 476.922058,444.724304 
z"/>
<path fill="#FDFCFB" opacity="1.000000" stroke="none" 
	d="
M429.999542,35.014973 
	C438.319275,38.231342 446.842651,41.016171 454.888184,44.813484 
	C460.392426,47.411335 465.230682,51.420174 470.851685,55.179005 
	C473.144623,57.041306 474.952484,58.522823 476.903473,60.317345 
	C479.657196,63.440353 482.267853,66.250359 484.995758,69.375008 
	C486.753845,71.767685 488.394684,73.845726 490.104584,76.267944 
	C492.207764,80.069839 494.241852,83.527550 496.343323,87.311066 
	C497.492584,89.788002 498.574463,91.939140 499.696594,94.348015 
	C499.847717,94.739731 499.958557,94.873718 500.064606,95.261078 
	C500.148132,95.658424 500.236511,95.802414 500.322113,96.235474 
	C500.600647,97.026672 500.881958,97.528809 501.148834,98.323761 
	C501.406006,99.121635 501.677582,99.626709 501.929016,100.463104 
	C502.255920,101.576035 502.602905,102.357635 502.949921,103.139229 
	C506.569061,123.158890 508.643646,163.160812 506.729156,176.744507 
	C475.207428,176.744507 443.658173,176.744507 411.226624,176.744507 
	C412.230072,127.254677 409.044891,78.686783 384.279755,33.152908 
	C387.407379,33.152908 389.776276,33.152908 392.572815,33.057518 
	C396.037048,33.030319 399.073608,33.098511 402.924805,33.157303 
	C404.493134,33.078194 405.246918,33.008480 406.000671,32.938766 
	C411.666290,33.312840 417.331879,33.686913 423.760925,34.143311 
	C426.349426,34.488747 428.174500,34.751862 429.999542,35.014973 
z"/>
<path fill="#FDFCFB" opacity="1.000000" stroke="none" 
	d="
M39.567673,97.629150 
	C56.749363,56.056881 91.578117,28.137114 155.912506,33.426598 
	C132.109650,78.210014 127.397865,126.479294 129.239365,176.588409 
	C97.085762,176.588409 65.367577,176.588409 33.163372,176.588409 
	C33.340145,176.895630 32.891785,176.483185 32.903587,176.084351 
	C33.518394,155.310379 33.900936,134.523102 35.008640,113.774620 
	C35.293076,108.446854 37.877239,103.241875 39.567673,97.629150 
z"/>
<path fill="#FDFBF9" opacity="1.000000" stroke="none" 
	d="
M225.579712,286.427643 
	C221.599884,282.177094 220.064163,277.370758 220.064392,272.009033 
	C220.065430,247.535004 220.018875,223.060730 220.122147,198.587097 
	C220.153534,191.149826 225.308563,186.094437 232.773682,186.064240 
	C257.913330,185.962524 283.053558,185.924881 308.193329,185.978745 
	C315.343903,185.994064 320.054108,190.716644 320.083740,197.956772 
	C320.187225,223.262939 320.240967,248.570297 320.097778,273.875977 
	C320.044495,283.295654 312.953491,291.013611 303.502167,291.208618 
	C281.701935,291.658386 259.884918,291.762665 238.085770,291.379761 
	C233.977280,291.307587 229.919861,288.328461 225.579712,286.427643 
M280.299957,210.076813 
	C270.144318,205.580704 259.449341,207.797852 252.649719,215.808960 
	C246.300720,223.289108 244.605377,234.730652 251.126938,241.534927 
	C256.810181,247.464554 254.784790,252.225372 252.825775,257.950806 
	C252.077835,260.136688 251.238571,262.375092 251.028275,264.643982 
	C250.577637,269.505951 253.689041,273.171814 258.546600,273.308258 
	C266.031158,273.518494 273.534943,273.576721 281.014191,273.282990 
	C287.374817,273.033142 290.413086,268.403564 288.622528,262.175903 
	C287.613129,258.665222 286.427887,255.188568 285.058350,251.803177 
	C283.940430,249.039719 284.237579,247.222641 286.590729,244.975952 
	C293.619537,238.265244 294.860168,228.360291 290.122742,219.196991 
	C287.046326,216.340393 283.969879,213.483810 280.299957,210.076813 
z"/>
<path fill="#FDFBF8" opacity="1.000000" stroke="none" 
	d="
M449.193115,203.443771 
	C450.148529,203.525986 451.103943,203.608215 452.810303,203.698212 
	C458.446289,203.620316 463.331390,203.534637 468.216461,203.448944 
	C471.772186,203.534103 475.327881,203.619247 479.712616,203.710648 
	C486.110565,203.651077 491.679535,203.585251 497.248474,203.519440 
	C505.412079,204.524490 506.998291,206.347336 507.392700,215.177277 
	C507.916809,226.910889 501.487122,233.671707 489.746429,233.680038 
	C443.137512,233.713150 396.528595,233.734085 349.208984,233.807159 
	C348.325562,233.876892 348.152832,233.899033 347.980103,233.921188 
	C347.665131,230.392029 347.119476,226.865067 347.085571,223.333206 
	C347.024231,216.947571 347.268494,210.559021 348.000275,203.948425 
	C360.399689,203.743729 372.184174,203.812424 383.968231,203.769424 
	C403.051422,203.699799 422.134338,203.556854 441.217377,203.444870 
	C442.182220,203.526596 443.147095,203.608337 444.893158,203.671082 
	C446.847290,203.582657 448.020203,203.513214 449.193115,203.443771 
z"/>
<path fill="#FDFBF9" opacity="1.000000" stroke="none" 
	d="
M45.107063,233.540848 
	C34.736980,229.355606 30.921646,222.266357 32.765224,210.986481 
	C33.478756,206.620758 36.617908,205.072708 40.923977,203.759552 
	C66.419922,203.624207 91.196480,203.581512 115.973030,203.538818 
	C116.433121,203.607330 116.893219,203.675858 118.148239,203.733139 
	C124.759422,203.741562 130.575867,203.800018 136.391922,203.773682 
	C154.329926,203.692444 172.267761,203.578812 190.205673,203.477753 
	C190.577316,203.542465 190.948944,203.607193 191.828018,203.675781 
	C192.508987,203.683701 192.682541,203.687759 192.856094,203.691833 
	C192.856094,213.466324 192.856094,223.240814 192.856094,233.673584 
	C144.006165,233.673584 95.493347,233.673584 46.298931,233.606873 
	C45.447243,233.540375 45.277153,233.540619 45.107063,233.540848 
z"/>
<path fill="#FD760C" opacity="1.000000" stroke="none" 
	d="
M321.822601,32.404156 
	C318.869476,32.911858 315.980255,32.979321 312.676025,32.957611 
	C312.770294,30.984835 313.607086,29.115530 313.690125,27.213329 
	C313.762848,25.546722 313.453857,23.429495 312.439148,22.289673 
	C311.657684,21.411879 309.342499,21.194815 308.012909,21.624176 
	C299.455078,24.387699 296.626251,23.636093 290.329834,16.464724 
	C289.753418,15.808208 288.918579,15.378576 287.896454,14.613632 
	C296.909515,10.409432 305.271240,5.885540 315.119629,10.707790 
	C316.250916,11.261736 318.180847,9.963654 319.761230,9.868608 
	C322.804901,9.685560 325.863342,9.748887 328.915680,9.710045 
	C328.742401,12.300229 328.602112,14.893183 328.384613,17.479649 
	C328.232330,19.290560 327.974670,21.092609 327.717987,23.293894 
	C323.222290,24.244858 319.634857,26.210922 321.822601,32.404156 
M312.877167,17.789486 
	C313.528564,16.966232 314.179962,16.142981 314.831360,15.319734 
	C314.059265,15.007047 313.287201,14.694360 312.515106,14.381672 
	C312.417480,15.415322 312.319885,16.448973 312.877167,17.789486 
z"/>
<path fill="#FD6D00" opacity="1.000000" stroke="none" 
	d="
M440.947540,203.077530 
	C422.134338,203.556854 403.051422,203.699799 383.968231,203.769424 
	C372.184174,203.812424 360.399689,203.743729 348.196838,203.634796 
	C349.070770,203.029404 350.362030,202.068619 351.656067,202.064850 
	C380.388306,201.981110 409.120880,201.996307 437.853333,202.034500 
	C438.795074,202.035751 439.736267,202.475082 440.947540,203.077530 
z"/>
<path fill="#FD750A" opacity="1.000000" stroke="none" 
	d="
M501.163208,98.030960 
	C500.881958,97.528809 500.600647,97.026672 500.436584,96.116379 
	C500.624359,95.341988 500.462891,95.108475 500.069427,95.007706 
	C499.958557,94.873718 499.847717,94.739731 500.114746,94.323212 
	C501.328461,94.027016 502.164215,94.013351 503.000000,93.999695 
	C503.999542,92.201401 505.710388,90.464470 505.871796,88.593857 
	C506.471954,81.637856 506.825958,81.112747 514.576111,80.999847 
	C515.000000,80.999695 515.000000,81.000000 515.005310,81.353630 
	C515.673767,82.471497 516.336853,83.235741 517.000000,83.999985 
	C516.688416,85.103256 516.376831,86.206520 515.661133,87.731697 
	C513.536377,92.934097 512.845276,98.593231 506.000000,99.000000 
	C505.009888,100.141869 504.019775,101.283745 502.989807,102.782425 
	C502.602905,102.357635 502.255920,101.576035 501.936340,100.164833 
	C501.696930,99.033806 501.430084,98.532387 501.163208,98.030960 
z"/>
<path fill="#FD6D00" opacity="1.000000" stroke="none" 
	d="
M115.829865,203.187439 
	C91.196480,203.581512 66.419922,203.624207 41.195080,203.595505 
	C42.049767,203.017654 43.350998,202.074829 44.655979,202.069626 
	C67.428223,201.978668 90.200951,201.993057 112.973473,202.036850 
	C113.878395,202.038589 114.782310,202.557907 115.829865,203.187439 
z"/>
<path fill="#FD6D00" opacity="1.000000" stroke="none" 
	d="
M189.944122,203.103912 
	C172.267761,203.578812 154.329926,203.692444 136.391922,203.773682 
	C130.575867,203.800018 124.759422,203.741562 118.485069,203.628052 
	C119.103462,203.023148 120.178307,202.070236 121.256676,202.066238 
	C143.294571,201.984329 165.332886,202.003616 187.371033,202.045792 
	C188.141968,202.047256 188.912064,202.491959 189.944122,203.103912 
z"/>
<path fill="#FD811B" opacity="1.000000" stroke="none" 
	d="
M222.199860,314.741699 
	C218.082413,312.877655 214.164032,310.756989 210.047119,308.359863 
	C215.164337,306.178314 219.887665,307.259277 223.380844,310.820801 
	C225.405273,312.884796 224.565933,313.758057 222.199860,314.741699 
z"/>
<path fill="#FD760C" opacity="1.000000" stroke="none" 
	d="
M506.214478,99.282196 
	C512.845276,98.593231 513.536377,92.934097 515.628479,88.076904 
	C515.679688,90.572899 515.591187,93.201180 514.990356,95.706596 
	C513.770630,100.792732 511.299927,101.818016 506.214478,99.282196 
z"/>
<path fill="#FD6D00" opacity="1.000000" stroke="none" 
	d="
M467.948853,203.081726 
	C463.331390,203.534637 458.446289,203.620316 453.158295,203.593719 
	C457.730652,203.225800 462.705963,202.970154 467.948853,203.081726 
z"/>
<path fill="#FD6D00" opacity="1.000000" stroke="none" 
	d="
M496.983826,203.140213 
	C491.679535,203.585251 486.110565,203.651077 480.144653,203.608688 
	C485.404846,203.253983 491.062012,203.007492 496.983826,203.140213 
z"/>
<path fill="#FD760C" opacity="1.000000" stroke="none" 
	d="
M516.973389,83.679016 
	C516.336853,83.235741 515.673767,82.471497 515.005310,81.353783 
	C515.648926,81.786224 516.297913,82.572144 516.973389,83.679016 
z"/>
<path fill="#FD6D00" opacity="1.000000" stroke="none" 
	d="
M448.981628,203.106781 
	C448.020203,203.513214 446.847290,203.582657 445.241150,203.553818 
	C446.128632,203.226974 447.449371,202.998383 448.981628,203.106781 
z"/>
<path fill="#F88A38" opacity="1.000000" stroke="none" 
	d="
M532.370239,132.922577 
	C532.566772,133.224518 532.594971,133.657547 532.623108,134.090607 
	C532.482666,133.744949 532.342224,133.399307 532.370239,132.922577 
z"/>
<path fill="#FD6D00" opacity="1.000000" stroke="none" 
	d="
M192.834198,203.432922 
	C192.682541,203.687759 192.508987,203.683701 192.097565,203.573303 
	C192.177231,203.369308 192.494766,203.271652 192.834198,203.432922 
z"/>
<path fill="#FD6C00" opacity="1.000000" stroke="none" 
	d="
M45.143108,233.761597 
	C45.277153,233.540619 45.447243,233.540375 45.837082,233.669861 
	C45.764267,233.860489 45.471710,233.921417 45.143108,233.761597 
z"/>
<path fill="#FD6C00" opacity="1.000000" stroke="none" 
	d="
M348.068115,234.095917 
	C348.152832,233.899033 348.325562,233.876892 348.751678,233.918304 
	C348.722076,234.078110 348.439117,234.174377 348.068115,234.095917 
z"/>
<path fill="#FD750A" opacity="1.000000" stroke="none" 
	d="
M496.275940,86.985275 
	C494.241852,83.527550 492.207764,80.069839 490.225525,76.011383 
	C490.851593,74.940430 491.425812,74.470215 492.000000,74.000000 
	C492.909698,72.798401 494.469086,71.670746 494.615723,70.382294 
	C495.225220,65.026939 498.332520,63.476109 503.578430,63.999626 
	C504.750000,63.999649 505.500000,63.999908 506.625000,64.000397 
	C508.642303,64.989876 510.284607,65.979126 512.171692,67.115799 
	C509.014832,71.079376 507.798828,77.373215 500.943390,78.899292 
	C499.722260,79.171120 499.017395,81.762314 498.034241,83.975403 
	C497.421539,85.440605 496.848755,86.212944 496.275940,86.985275 
z"/>
<path fill="#FD740A" opacity="1.000000" stroke="none" 
	d="
M484.878479,69.060364 
	C482.267853,66.250359 479.657196,63.440353 477.229462,60.299366 
	C477.941559,59.645592 478.470795,59.322800 479.000000,59.000000 
	C480.123596,57.778347 481.535522,56.715034 482.311279,55.302368 
	C483.973328,52.275589 488.875610,49.851543 491.984772,51.277718 
	C493.503479,51.974350 495.169067,53.527454 495.595520,55.026489 
	C495.893799,56.074886 494.434540,57.918537 493.352936,58.999435 
	C491.422241,60.928791 489.183716,62.550125 487.005127,64.990616 
	C486.250427,66.807449 485.564453,67.933907 484.878479,69.060364 
z"/>
<path fill="#FD780E" opacity="1.000000" stroke="none" 
	d="
M484.995758,69.375015 
	C485.564453,67.933907 486.250427,66.807449 486.968201,65.340645 
	C492.692322,63.822029 494.155792,66.181778 492.047607,73.608002 
	C491.425812,74.470215 490.851593,74.940430 490.156433,75.667206 
	C488.394684,73.845726 486.753845,71.767685 484.995758,69.375015 
z"/>
<path fill="#FD780E" opacity="1.000000" stroke="none" 
	d="
M479.041473,58.627991 
	C478.470795,59.322800 477.941559,59.645592 477.086365,59.986362 
	C474.952484,58.522823 473.144623,57.041306 471.177094,55.276588 
	C472.028320,54.500084 473.006409,53.695923 474.057587,53.585087 
	C475.704376,53.411449 477.658997,53.252632 478.965363,53.996708 
	C479.605530,54.361351 479.080566,56.771557 479.041473,58.627991 
z"/>
<path fill="#FD780E" opacity="1.000000" stroke="none" 
	d="
M349.000366,32.549721 
	C346.973938,32.982018 344.946991,33.028057 342.578796,32.972912 
	C342.923340,30.968533 343.417999,27.558844 344.330566,27.443064 
	C347.130005,27.087887 349.273285,28.763794 349.000366,32.549721 
z"/>
<path fill="#FD780E" opacity="1.000000" stroke="none" 
	d="
M430.045471,34.625107 
	C428.174500,34.751862 426.349426,34.488747 424.221680,34.086838 
	C424.390350,32.477249 424.440857,30.433243 425.448761,29.693291 
	C426.503784,28.918722 428.478607,29.396969 430.051392,29.327621 
	C430.064728,30.963495 430.078064,32.599369 430.045471,34.625107 
z"/>
<path fill="#FD780E" opacity="1.000000" stroke="none" 
	d="
M406.000610,32.537201 
	C405.246918,33.008480 404.493134,33.078194 403.369507,33.054523 
	C402.999664,31.144964 402.999664,29.328789 402.999664,27.512611 
	C403.639984,27.425579 404.280304,27.338547 404.920624,27.251514 
	C405.280609,28.879557 405.640564,30.507597 406.000610,32.537201 
z"/>
<path fill="#FD780E" opacity="1.000000" stroke="none" 
	d="
M496.343323,87.311066 
	C496.848755,86.212944 497.421539,85.440605 497.997772,84.334290 
	C499.404388,83.713814 500.807556,83.427330 503.097839,82.959717 
	C503.097839,86.665558 503.097839,89.935699 503.048920,93.602768 
	C502.164215,94.013351 501.328461,94.027016 500.074524,94.065475 
	C498.574463,91.939140 497.492584,89.788002 496.343323,87.311066 
z"/>
<path fill="#FD770E" opacity="1.000000" stroke="none" 
	d="
M510.963623,431.003723 
	C510.996033,437.496033 511.289948,444.000488 510.988464,450.477234 
	C510.677643,457.155182 505.750671,460.738495 499.277222,459.048004 
	C496.805939,458.402649 495.442810,458.753174 493.778015,460.621704 
	C480.850128,475.131561 464.449188,483.237640 445.482147,486.617249 
	C443.303986,487.005371 441.095459,487.928040 439.206299,489.096497 
	C434.222687,492.178925 428.187561,491.956604 423.277557,488.704285 
	C421.313904,487.403564 418.804047,486.682800 416.442566,486.266052 
	C398.105286,483.030090 382.547028,474.652740 369.789917,461.151489 
	C367.826050,459.073059 366.118713,458.542786 363.302338,459.152283 
	C356.535889,460.616516 351.821899,456.754639 351.666595,449.853241 
	C351.516724,443.191650 351.551666,436.523560 351.628601,429.859741 
	C351.710602,422.757202 357.074097,418.488342 364.009003,420.284027 
	C370.126282,421.867981 376.146210,423.855255 382.150696,425.841125 
	C390.313690,428.540924 392.430542,435.335114 387.404236,442.309174 
	C386.922455,442.977570 386.395264,443.613220 385.671448,444.544067 
	C394.449432,454.964203 405.944458,460.286652 419.272095,463.802612 
	C419.272095,447.049561 419.272095,430.865875 419.272095,413.885071 
	C415.764221,413.885071 412.332550,413.964203 408.905853,413.868164 
	C402.243134,413.681519 397.599335,409.174103 397.634308,403.046417 
	C397.672516,396.354828 402.147491,392.123199 409.188354,392.121552 
	C412.473938,392.120789 415.759552,392.121429 419.108887,392.121429 
	C420.260590,386.461090 420.366791,382.573608 414.502594,379.347809 
	C404.819916,374.021484 400.118988,360.940765 402.639587,350.272491 
	C405.805847,336.871552 414.727051,328.779053 428.189056,327.096375 
	C439.490112,325.683838 451.661957,332.082886 456.962158,342.223145 
	C464.465576,356.578583 459.954315,372.926483 445.926086,380.570496 
	C440.463470,383.547089 444.036804,387.787567 442.655670,392.171021 
	C446.774933,392.171021 450.221527,392.120544 453.666138,392.181946 
	C460.083832,392.296295 464.555481,396.568848 464.704956,402.650116 
	C464.858032,408.877960 460.281525,413.650055 453.792358,413.876495 
	C450.337433,413.997070 446.874878,413.897888 443.154541,413.897888 
	C443.154541,430.697052 443.154541,447.113403 443.154541,463.985535 
	C456.512970,460.800598 467.922272,454.914001 477.210052,444.131897 
	C478.504730,437.442963 477.794159,436.574432 472.975891,438.011902 
	C471.554840,432.718170 472.881805,428.564148 477.473572,426.924255 
	C484.816467,424.301788 492.344086,422.147156 499.898071,420.200226 
	C501.775055,419.716431 504.052612,420.786987 505.982239,421.499817 
	C504.289124,422.048004 502.759827,422.239441 501.165009,422.439087 
	C502.585571,428.249817 504.550812,429.867004 510.963623,431.003723 
M426.605621,351.175598 
	C424.525665,353.868256 424.010620,356.926056 426.463470,359.322449 
	C427.910217,360.735931 430.749969,361.971466 432.489929,361.508423 
	C434.484436,360.977661 436.815979,358.729645 437.393311,356.757111 
	C437.897461,355.034729 436.706116,352.143036 435.306976,350.688293 
	C432.982483,348.271393 429.903259,348.493347 426.605621,351.175598 
M498.587250,422.518036 
	C498.587250,422.518036 498.478302,422.582214 498.587250,422.518036 
z"/>
<path fill="#FD8217" opacity="1.000000" stroke="none" 
	d="
M511.045288,430.610229 
	C504.550812,429.867004 502.585571,428.249817 501.165009,422.439087 
	C502.759827,422.239441 504.289124,422.048004 506.274658,421.786011 
	C508.196198,424.549225 509.661560,427.382996 511.045288,430.610229 
z"/>
<path fill="#FD811B" opacity="1.000000" stroke="none" 
	d="
M472.979309,438.358398 
	C477.794159,436.574432 478.504730,437.442963 477.204926,443.788757 
	C475.602112,442.260345 474.292389,440.482605 472.979309,438.358398 
z"/>
<path fill="#FD780E" opacity="1.000000" stroke="none" 
	d="
M501.148804,98.323769 
	C501.430084,98.532387 501.696930,99.033806 501.956482,99.833496 
	C501.677582,99.626709 501.406006,99.121635 501.148804,98.323769 
z"/>
<path fill="#FD780E" opacity="1.000000" stroke="none" 
	d="
M500.064606,95.261078 
	C500.462891,95.108475 500.624359,95.341988 500.439392,95.827324 
	C500.236511,95.802414 500.148132,95.658424 500.064606,95.261078 
z"/>
<path fill="#FD770D" opacity="1.000000" stroke="none" 
	d="
M290.271240,219.868027 
	C294.860168,228.360291 293.619537,238.265244 286.590729,244.975952 
	C284.237579,247.222641 283.940430,249.039719 285.058350,251.803177 
	C286.427887,255.188568 287.613129,258.665222 288.622528,262.175903 
	C290.413086,268.403564 287.374817,273.033142 281.014191,273.282990 
	C273.534943,273.576721 266.031158,273.518494 258.546600,273.308258 
	C253.689041,273.171814 250.577637,269.505951 251.028275,264.643982 
	C251.238571,262.375092 252.077835,260.136688 252.825775,257.950806 
	C254.784790,252.225372 256.810181,247.464554 251.126938,241.534927 
	C244.605377,234.730652 246.300720,223.289108 252.649719,215.808960 
	C259.449341,207.797852 270.144318,205.580704 280.179443,210.457428 
	C279.458191,211.962555 278.153046,213.257492 278.376862,214.182480 
	C279.428772,218.529800 285.743469,221.395950 290.271240,219.868027 
z"/>
<path fill="#FD8017" opacity="1.000000" stroke="none" 
	d="
M290.196991,219.532501 
	C285.743469,221.395950 279.428772,218.529800 278.376862,214.182480 
	C278.153046,213.257492 279.458191,211.962555 280.476196,210.732635 
	C283.969879,213.483810 287.046326,216.340393 290.196991,219.532501 
z"/>
<path fill="#FD780E" opacity="1.000000" stroke="none" 
	d="
M312.549744,17.636055 
	C312.319885,16.448973 312.417480,15.415322 312.515106,14.381672 
	C313.287201,14.694360 314.059265,15.007047 314.831360,15.319731 
	C314.179962,16.142981 313.528564,16.966232 312.549744,17.636055 
z"/>
<path fill="#FCF5EC" opacity="1.000000" stroke="none" 
	d="
M426.883331,350.899963 
	C429.903259,348.493347 432.982483,348.271393 435.306976,350.688293 
	C436.706116,352.143036 437.897461,355.034729 437.393311,356.757111 
	C436.815979,358.729645 434.484436,360.977661 432.489929,361.508423 
	C430.749969,361.971466 427.910217,360.735931 426.463470,359.322449 
	C424.010620,356.926056 424.525665,353.868256 426.883331,350.899963 
z"/>
<path fill="#FD8217" opacity="1.000000" stroke="none" 
	d="
M498.532776,422.550110 
	C498.478302,422.582214 498.587250,422.518036 498.532776,422.550110 
z"/>
</svg>