<svg version="1.1" id="Layer_1" xmlns="http://www.w3.org/2000/svg" xmlns:xlink="http://www.w3.org/1999/xlink" x="0px" y="0px"
	 width="100%" viewBox="0 0 547 502" enable-background="new 0 0 547 502" xml:space="preserve">
<path fill="#FEFEFE" opacity="1.000000" stroke="none" 
	d="
M548.000000,188.000000 
	C548.000000,293.308350 548.000000,398.116730 548.000000,502.962524 
	C365.735077,502.962524 183.470169,502.962524 1.102622,502.962524 
	C1.102622,335.774994 1.102622,168.549927 1.102622,1.162420 
	C183.333221,1.162420 365.666595,1.162420 548.000000,1.162420 
	C548.000000,63.196484 548.000000,125.348244 548.000000,188.000000 
M534.193237,161.206909 
	C533.083801,157.472687 531.974426,153.738464 530.700623,149.297562 
	C527.859253,142.374283 525.427063,135.247971 522.108582,128.561508 
	C503.911346,91.895226 477.513794,62.563568 442.744415,40.860798 
	C408.315491,19.370558 370.748657,8.358892 330.210876,8.258205 
	C316.962769,8.225300 303.630127,9.377271 290.476929,11.076980 
	C265.857666,14.258376 242.465073,21.849426 220.510223,33.460972 
	C198.516861,45.092865 179.430847,60.520798 162.548477,78.793922 
	C159.991211,81.561844 156.357361,83.842369 152.782364,85.085747 
	C108.193916,100.593567 72.393738,127.758011 45.827663,166.619736 
	C12.654063,215.147156 1.505533,269.083038 12.478489,326.439758 
	C25.366959,393.809052 63.758484,443.636627 124.197647,475.800293 
	C162.247574,496.049164 203.344223,502.171204 246.110382,498.123627 
	C271.096588,495.758820 294.641968,488.552277 317.018768,477.425537 
	C343.165680,464.424133 365.343658,446.354645 384.416473,424.297333 
	C386.645569,421.719391 390.037476,419.788300 393.266602,418.502075 
	C402.370483,414.875885 411.932007,412.314056 420.818878,408.251495 
	C429.527527,404.270386 437.628113,398.959167 446.713135,394.113800 
	C449.796906,392.043823 452.880646,389.973846 456.608917,387.698364 
	C474.821167,374.521759 490.683197,359.043762 503.688354,339.809570 
	C511.218170,325.997406 519.565979,312.557373 526.063232,298.275482 
	C533.574341,281.765015 538.310181,264.213013 540.456238,245.381195 
	C540.586304,243.252823 540.716431,241.124435 540.992737,238.252884 
	C540.985535,237.497452 540.978333,236.742004 541.434082,235.315186 
	C541.182434,220.380661 540.948425,205.445740 540.612854,190.513123 
	C540.599792,189.931381 539.613342,189.371536 539.085571,187.981445 
	C538.711121,185.655045 538.336731,183.328659 538.078003,180.118576 
	C536.797546,174.080383 535.517090,168.042191 534.193237,161.206909 
z"/>
<path fill="#B0B4BA" opacity="1.000000" stroke="none" 
	d="
M445.995544,394.231689 
	C437.628113,398.959167 429.527527,404.270386 420.818878,408.251495 
	C411.932007,412.314056 402.370483,414.875885 393.266602,418.502075 
	C390.037476,419.788300 386.645569,421.719391 384.416473,424.297333 
	C365.343658,446.354645 343.165680,464.424133 317.018768,477.425537 
	C294.641968,488.552277 271.096588,495.758820 246.110382,498.123627 
	C203.344223,502.171204 162.247574,496.049164 124.197647,475.800293 
	C63.758484,443.636627 25.366959,393.809052 12.478489,326.439758 
	C1.505533,269.083038 12.654063,215.147156 45.827663,166.619736 
	C72.393738,127.758011 108.193916,100.593567 152.782364,85.085747 
	C156.357361,83.842369 159.991211,81.561844 162.548477,78.793922 
	C179.430847,60.520798 198.516861,45.092865 220.510223,33.460972 
	C242.465073,21.849426 265.857666,14.258376 290.476929,11.076980 
	C303.630127,9.377271 316.962769,8.225300 330.210876,8.258205 
	C370.748657,8.358892 408.315491,19.370558 442.744415,40.860798 
	C477.513794,62.563568 503.911346,91.895226 522.108582,128.561508 
	C525.427063,135.247971 527.859253,142.374283 530.410034,149.657486 
	C529.071045,150.882080 527.603088,151.534744 527.041809,152.645538 
	C523.134216,160.378723 519.280396,168.146454 515.724609,176.045044 
	C514.779541,178.144424 513.953430,181.166611 514.764832,183.027191 
	C517.371887,189.005524 520.838562,194.604080 523.804871,200.434967 
	C524.383789,201.572937 524.205383,203.096130 524.376282,204.441650 
	C522.902222,204.222549 521.163452,204.428864 520.002686,203.706390 
	C516.164978,201.317978 512.536011,198.594238 508.679932,195.632614 
	C505.901947,183.620407 504.148804,171.688919 500.467773,160.385239 
	C491.144928,131.756790 474.334900,107.830482 452.195648,87.543060 
	C436.560181,73.215393 418.900421,62.060196 399.327240,54.024353 
	C367.702576,41.040718 334.881561,37.548248 301.044373,41.868336 
	C277.033813,44.933823 254.178757,51.493820 232.893677,63.118645 
	C227.315094,66.165390 221.989990,69.676270 215.580902,73.560379 
	C223.832108,74.064842 230.590363,74.672737 237.360031,74.853592 
	C254.290665,75.305870 270.651794,78.805428 286.719635,83.845940 
	C316.408478,93.159370 342.842834,108.343994 365.544159,129.530350 
	C374.593048,137.975372 382.154816,148.013794 390.272217,157.727448 
	C383.068970,164.311569 375.047363,163.010513 370.097565,154.875549 
	C367.390411,150.426422 362.506592,150.231110 358.429138,153.659698 
	C356.024719,155.681458 352.687408,156.593719 349.542053,157.792603 
	C332.876495,142.568802 315.179230,129.540268 294.544189,120.627884 
	C261.004242,106.141785 226.178970,102.300964 190.473969,108.493469 
	C147.413147,115.961708 111.409485,136.584930 83.239906,170.151489 
	C57.714073,200.567795 44.022259,236.026581 41.251263,275.452026 
	C39.276772,303.544891 43.935658,330.772064 55.029919,356.848938 
	C68.812737,389.245178 89.701347,415.800385 118.930786,435.560822 
	C161.182816,464.125153 207.781250,472.854156 257.480499,463.761627 
	C300.395935,455.910187 335.459412,433.976746 362.664886,399.874542 
	C369.278229,391.584625 374.789032,382.415161 380.959839,373.995239 
	C382.193024,375.141144 383.803894,376.869415 384.272369,376.601349 
	C389.870178,373.398193 395.267578,376.161621 400.763550,376.623352 
	C402.229401,376.746490 404.873016,375.313873 405.220428,374.095062 
	C406.606140,369.234009 409.749268,369.682709 413.378143,370.363617 
	C413.243988,373.066254 413.161438,375.517578 412.991974,377.962830 
	C412.723145,381.840698 414.223999,382.734497 417.764526,381.181061 
	C419.356476,380.482574 421.687073,379.653931 422.933441,380.309174 
	C427.299164,382.604340 431.738983,385.080017 435.349701,388.367035 
	C437.460083,390.288208 438.954376,391.423370 441.710480,390.643768 
	C444.776947,389.776367 446.068420,391.241333 445.995544,394.231689 
z"/>
<path fill="#AEB2B8" opacity="1.000000" stroke="none" 
	d="
M446.354340,394.172729 
	C446.068420,391.241333 444.776947,389.776367 441.710480,390.643768 
	C438.954376,391.423370 437.460083,390.288208 435.349701,388.367035 
	C431.738983,385.080017 427.299164,382.604340 422.933441,380.309174 
	C421.687073,379.653931 419.356476,380.482574 417.764526,381.181061 
	C414.223999,382.734497 412.723145,381.840698 412.991974,377.962830 
	C413.161438,375.517578 413.243988,373.066254 413.378143,370.363617 
	C409.749268,369.682709 406.606140,369.234009 405.220428,374.095062 
	C404.873016,375.313873 402.229401,376.746490 400.763550,376.623352 
	C395.267578,376.161621 389.870178,373.398193 384.272369,376.601349 
	C383.803894,376.869415 382.193024,375.141144 381.004272,373.746796 
	C381.170227,372.731750 381.444824,372.310211 382.131958,371.922302 
	C385.053925,370.923218 387.566406,369.897888 390.072113,368.856171 
	C394.396973,367.058105 398.794098,365.410095 403.015686,363.394989 
	C406.365662,361.796021 409.567841,359.850159 412.695801,357.840576 
	C414.063019,356.962189 415.081207,355.540405 416.257874,354.365387 
	C415.980438,353.925323 415.703003,353.485260 415.425568,353.045197 
	C411.918488,353.045197 408.368927,352.700439 404.914307,353.126129 
	C399.753235,353.762085 394.658997,354.940521 389.598419,355.493042 
	C391.841492,348.320374 394.194153,341.592468 396.169586,334.755554 
	C401.039124,317.902039 403.135529,300.632965 402.754181,283.132263 
	C402.559509,274.196716 401.461914,265.280823 400.991394,256.034698 
	C405.006470,253.769775 408.998230,252.110382 412.481445,249.712234 
	C413.548889,248.977295 413.568939,246.167496 413.317108,244.415894 
	C413.243988,243.907394 410.482941,243.311508 409.096832,243.558105 
	C405.529114,244.192841 402.041382,245.276794 398.330292,245.858810 
	C396.731323,240.356689 395.323700,235.177002 394.349487,229.998016 
	C397.385071,229.302582 400.337952,229.153061 402.498016,227.767563 
	C405.019775,226.150055 406.768158,224.651505 409.929321,226.646057 
	C411.643799,227.727814 414.235413,227.419418 416.431335,227.738083 
	C416.671021,227.331116 416.910675,226.924133 417.150360,226.517166 
	C411.800507,224.440918 408.179352,220.375656 404.100800,216.847290 
	C399.723389,213.060349 396.765045,214.297668 389.997040,219.637466 
	C388.800629,216.564789 387.704254,213.846146 387.022705,211.039856 
	C391.722656,204.588623 390.668732,200.184875 384.248627,198.128296 
	C384.386322,196.614624 384.526550,195.073059 384.735138,192.780212 
	C381.997620,193.308884 379.809143,193.731522 377.368225,193.939941 
	C375.264404,190.569077 373.413055,187.412415 371.923584,184.073578 
	C373.224335,181.713440 373.705444,179.136871 375.188873,177.432953 
	C379.475891,172.508820 380.808746,170.107803 372.425995,167.820374 
	C366.179993,166.115997 363.504089,165.573334 361.851685,171.739395 
	C357.640778,167.039780 353.705231,162.522385 349.769684,158.004974 
	C352.687408,156.593719 356.024719,155.681458 358.429138,153.659698 
	C362.506592,150.231110 367.390411,150.426422 370.097565,154.875549 
	C375.047363,163.010513 383.068970,164.311569 390.535309,157.940979 
	C392.275116,159.509338 393.630402,161.264755 394.744873,163.289673 
	C388.176453,164.813950 384.043823,171.443222 385.591492,177.479660 
	C385.974884,178.975143 385.425232,180.694641 385.403229,182.312515 
	C385.361481,185.381531 385.391144,188.451508 385.391144,191.752747 
	C387.215363,191.861389 388.880127,191.535080 390.105042,192.123871 
	C392.502563,193.276321 395.989197,194.500290 396.640137,196.479156 
	C398.156067,201.087463 400.691223,201.428650 405.780640,200.291245 
	C404.708099,197.120743 404.437592,193.764160 402.662018,191.705917 
	C400.331970,189.004837 396.630249,187.532623 393.919281,185.087524 
	C393.076355,184.327271 392.825867,181.533310 393.528351,180.688995 
	C395.835510,177.916199 398.210938,179.151733 400.040283,181.614853 
	C402.287231,184.640259 404.897614,186.528290 409.055420,185.302979 
	C412.137268,191.731461 415.022491,197.865829 417.502289,203.999847 
	C415.041016,204.516617 411.448334,202.622101 411.515198,206.593262 
	C411.599121,211.574417 417.206543,215.283096 421.987061,214.385712 
	C424.025909,221.508301 425.982025,228.251846 427.601715,234.941498 
	C425.172974,233.806000 423.134033,232.143463 420.960632,231.943527 
	C420.150024,231.868958 417.876770,236.470108 418.228851,236.791092 
	C420.636200,238.985855 423.564667,240.609100 426.575806,242.580704 
	C427.326691,239.828293 427.722107,238.378845 428.411560,237.086914 
	C429.102142,239.072922 429.519623,240.897156 429.891998,242.730545 
	C433.015717,258.109863 435.684265,273.542175 434.965149,289.336884 
	C434.671295,295.791962 434.903107,302.348969 433.815063,308.673676 
	C431.549164,321.845184 428.562958,334.892792 425.519073,347.948730 
	C421.956665,346.204224 419.905853,347.569336 419.328979,350.703308 
	C418.645111,354.418365 421.670685,353.869080 423.901184,354.364197 
	C421.822388,360.722015 419.759430,366.715546 417.533386,372.856415 
	C417.424683,373.244476 417.479034,373.485199 417.533417,373.725922 
	C417.757660,373.557678 417.981903,373.389435 418.520111,373.180420 
	C419.452850,373.037689 420.071594,372.935699 420.995178,373.035034 
	C423.117401,376.491150 425.189484,377.842224 429.571289,377.649353 
	C433.770844,377.464508 439.340698,377.747925 441.661804,383.268066 
	C442.651581,385.621948 444.108063,386.893188 446.623230,384.906830 
	C451.202728,381.290192 453.663391,384.369293 455.964417,387.903870 
	C452.880646,389.973846 449.796906,392.043823 446.354340,394.172729 
z"/>
<path fill="#AEB2B8" opacity="1.000000" stroke="none" 
	d="
M508.826904,195.999191 
	C512.536011,198.594238 516.164978,201.317978 520.002686,203.706390 
	C521.163452,204.428864 522.902222,204.222549 524.376282,204.441650 
	C524.205383,203.096130 524.383789,201.572937 523.804871,200.434967 
	C520.838562,194.604080 517.371887,189.005524 514.764832,183.027191 
	C513.953430,181.166611 514.779541,178.144424 515.724609,176.045044 
	C519.280396,168.146454 523.134216,160.378723 527.041809,152.645538 
	C527.603088,151.534744 529.071045,150.882080 530.492188,150.010818 
	C531.974426,153.738464 533.083801,157.472687 533.804688,161.608810 
	C529.512329,162.007538 529.557373,165.330414 529.127258,167.691315 
	C528.272705,172.381775 526.963501,176.640091 522.915100,179.603897 
	C520.459839,181.401337 520.906372,183.525391 522.409058,185.691162 
	C525.686401,190.414856 531.106018,189.917511 533.989746,184.846359 
	C534.863892,183.309082 536.613586,182.269699 537.962280,181.002258 
	C538.336731,183.328659 538.711121,185.655045 539.051636,188.808136 
	C538.705200,191.254364 537.842590,192.996811 538.172363,194.472855 
	C539.908691,202.244400 534.885071,206.127945 529.776245,210.175934 
	C528.265076,211.373337 526.153625,213.312714 526.284912,214.729752 
	C526.478943,216.823654 528.376770,218.791077 529.659607,220.739594 
	C530.308655,221.725433 531.840698,222.527328 531.875854,223.454041 
	C532.072754,228.641235 534.937805,230.270477 539.451782,229.652298 
	C539.997620,231.927994 540.484375,233.957291 540.971191,235.986572 
	C540.978333,236.742004 540.985535,237.497452 540.553894,238.638336 
	C535.483582,241.272583 539.323914,243.662231 539.999084,245.999268 
	C538.310181,264.213013 533.574341,281.765015 526.063232,298.275482 
	C519.565979,312.557373 511.218170,325.997406 503.190918,339.709991 
	C500.944946,340.155579 499.144745,340.575623 497.458527,341.271637 
	C493.808594,342.778290 492.260651,341.757385 491.961426,337.828033 
	C491.735046,334.855194 492.987396,333.241821 495.649567,332.161957 
	C497.263885,331.507080 498.652435,330.295532 500.557098,329.066437 
	C499.198975,328.001251 498.742310,327.360199 498.177765,327.244171 
	C492.699158,326.118591 488.908417,322.806122 485.697937,318.393372 
	C484.791321,317.147217 482.685150,316.773804 481.237732,315.681854 
	C499.718506,286.226074 508.437531,254.187836 510.443176,220.000000 
	C513.476379,219.712234 516.225830,219.865677 518.620361,219.017212 
	C521.205688,218.101120 522.396423,215.683472 519.439697,213.907288 
	C516.541016,212.166077 513.135193,211.269119 509.879517,209.590729 
	C509.480316,204.786285 509.153595,200.392746 508.826904,195.999191 
z"/>
<path fill="#B0B4BA" opacity="1.000000" stroke="none" 
	d="
M481.129150,316.000153 
	C482.685150,316.773804 484.791321,317.147217 485.697937,318.393372 
	C488.908417,322.806122 492.699158,326.118591 498.177765,327.244171 
	C498.742310,327.360199 499.198975,328.001251 500.557098,329.066437 
	C498.652435,330.295532 497.263885,331.507080 495.649567,332.161957 
	C492.987396,333.241821 491.735046,334.855194 491.961426,337.828033 
	C492.260651,341.757385 493.808594,342.778290 497.458527,341.271637 
	C499.144745,340.575623 500.944946,340.155579 502.903870,339.908264 
	C490.683197,359.043762 474.821167,374.521759 456.286682,387.801117 
	C453.663391,384.369293 451.202728,381.290192 446.623230,384.906830 
	C444.108063,386.893188 442.651581,385.621948 441.661804,383.268066 
	C439.340698,377.747925 433.770844,377.464508 429.571289,377.649353 
	C425.189484,377.842224 423.117401,376.491150 421.228821,372.776245 
	C445.531891,358.212433 465.651825,339.578278 481.129150,316.000153 
z"/>
<path fill="#B0B4BA" opacity="1.000000" stroke="none" 
	d="
M541.202637,235.650879 
	C540.484375,233.957291 539.997620,231.927994 539.451782,229.652298 
	C534.937805,230.270477 532.072754,228.641235 531.875854,223.454041 
	C531.840698,222.527328 530.308655,221.725433 529.659607,220.739594 
	C528.376770,218.791077 526.478943,216.823654 526.284912,214.729752 
	C526.153625,213.312714 528.265076,211.373337 529.776245,210.175934 
	C534.885071,206.127945 539.908691,202.244400 538.172363,194.472855 
	C537.842590,192.996811 538.705200,191.254364 539.049072,189.218170 
	C539.613342,189.371536 540.599792,189.931381 540.612854,190.513123 
	C540.948425,205.445740 541.182434,220.380661 541.202637,235.650879 
M539.359985,211.560486 
	C538.973572,212.442749 538.587158,213.325012 538.200745,214.207275 
	C538.619812,214.303238 539.038879,214.399200 539.457947,214.495163 
	C539.567322,213.677490 539.676636,212.859802 539.359985,211.560486 
z"/>
<path fill="#B0B4BA" opacity="1.000000" stroke="none" 
	d="
M538.020142,180.560425 
	C536.613586,182.269699 534.863892,183.309082 533.989746,184.846359 
	C531.106018,189.917511 525.686401,190.414856 522.409058,185.691162 
	C520.906372,183.525391 520.459839,181.401337 522.915100,179.603897 
	C526.963501,176.640091 528.272705,172.381775 529.127258,167.691315 
	C529.557373,165.330414 529.512329,162.007538 533.826294,162.007355 
	C535.517090,168.042191 536.797546,174.080383 538.020142,180.560425 
z"/>
<path fill="#B0B4BA" opacity="1.000000" stroke="none" 
	d="
M540.227661,245.690231 
	C539.323914,243.662231 535.483582,241.272583 540.480835,239.009918 
	C540.716431,241.124435 540.586304,243.252823 540.227661,245.690231 
z"/>
<path fill="#FEFEFE" opacity="1.000000" stroke="none" 
	d="
M400.772400,256.356049 
	C401.461914,265.280823 402.559509,274.196716 402.754181,283.132263 
	C403.135529,300.632965 401.039124,317.902039 396.169586,334.755554 
	C394.194153,341.592468 391.841492,348.320374 389.384888,355.727417 
	C386.646027,361.534210 384.182739,366.711456 381.719421,371.888672 
	C381.444824,372.310211 381.170227,372.731750 380.851196,373.401672 
	C374.789032,382.415161 369.278229,391.584625 362.664886,399.874542 
	C335.459412,433.976746 300.395935,455.910187 257.480499,463.761627 
	C207.781250,472.854156 161.182816,464.125153 118.930786,435.560822 
	C89.701347,415.800385 68.812737,389.245178 55.029919,356.848938 
	C43.935658,330.772064 39.276772,303.544891 41.251263,275.452026 
	C44.022259,236.026581 57.714073,200.567795 83.239906,170.151489 
	C111.409485,136.584930 147.413147,115.961708 190.473969,108.493469 
	C226.178970,102.300964 261.004242,106.141785 294.544189,120.627884 
	C315.179230,129.540268 332.876495,142.568802 349.542053,157.792618 
	C353.705231,162.522385 357.640778,167.039780 361.963684,172.055908 
	C365.421234,176.455017 368.491486,180.355392 371.561737,184.255753 
	C373.413055,187.412415 375.264404,190.569077 377.472626,194.288605 
	C380.755615,200.276840 383.681732,205.702179 386.607880,211.127502 
	C387.704254,213.846146 388.800629,216.564789 390.082092,219.985550 
	C391.483459,223.790878 392.699768,226.894089 393.916107,229.997299 
	C395.323700,235.177002 396.731323,240.356689 398.405212,246.268967 
	C399.371796,250.119720 400.072083,253.237885 400.772400,256.356049 
M209.571350,390.799866 
	C213.270325,395.526276 218.245728,396.912872 223.856277,395.708923 
	C229.296143,394.541656 232.370392,390.619720 233.652451,385.429535 
	C239.773895,360.648254 253.023560,340.360138 272.464478,324.072693 
	C284.738220,313.789795 298.622375,306.323364 314.152985,302.214630 
	C321.502319,300.270294 324.989105,296.515656 325.039886,289.525452 
	C325.087250,283.007721 321.437225,278.807678 314.556732,276.923157 
	C296.076660,271.861450 279.786652,262.863373 265.892456,249.586426 
	C249.856522,234.262848 238.973541,215.922775 233.215286,194.498322 
	C231.509415,188.151352 226.622147,184.276337 220.701294,184.154480 
	C214.860855,184.034286 209.439835,188.540222 207.303711,194.333939 
	C204.089066,203.052887 201.203522,212.042343 196.745087,220.126495 
	C181.150330,248.403244 158.527496,268.438324 126.795197,277.083130 
	C121.207809,278.605255 117.147163,283.445892 116.943237,288.875641 
	C116.701790,295.304321 120.069824,300.201996 126.087723,302.166290 
	C130.191589,303.505798 134.394211,304.600311 138.386139,306.215851 
	C165.023087,316.995972 184.421585,335.785004 197.373688,361.121246 
	C202.112915,370.391907 205.273392,380.469635 209.571350,390.799866 
z"/>
<path fill="#FEFEFE" opacity="1.000000" stroke="none" 
	d="
M481.237732,315.681854 
	C465.651825,339.578278 445.531891,358.212433 420.924011,372.574951 
	C420.071594,372.935699 419.452850,373.037689 418.393921,373.051178 
	C417.953766,372.962708 417.696472,372.709076 417.696472,372.709076 
	C419.759430,366.715546 421.822388,360.722015 424.076660,354.055542 
	C424.802948,351.585510 425.337860,349.788391 425.872742,347.991302 
	C428.562958,334.892792 431.549164,321.845184 433.815063,308.673676 
	C434.903107,302.348969 434.671295,295.791962 434.965149,289.336884 
	C435.684265,273.542175 433.015717,258.109863 429.891998,242.730545 
	C429.519623,240.897156 429.102142,239.072922 428.374634,236.765564 
	C428.008484,235.856262 427.973297,235.425827 427.938110,234.995392 
	C425.982025,228.251846 424.025909,221.508301 421.973236,214.019287 
	C420.553680,210.182602 419.230682,207.091385 417.907715,204.000183 
	C415.022491,197.865829 412.137268,191.731461 408.964111,184.973450 
	C404.112701,177.239914 399.549194,170.130051 394.985687,163.020172 
	C393.630402,161.264755 392.275116,159.509338 390.656677,157.540375 
	C382.154816,148.013794 374.593048,137.975372 365.544159,129.530350 
	C342.842834,108.343994 316.408478,93.159370 286.719635,83.845940 
	C270.651794,78.805428 254.290665,75.305870 237.360031,74.853592 
	C230.590363,74.672737 223.832108,74.064842 215.580902,73.560379 
	C221.989990,69.676270 227.315094,66.165390 232.893677,63.118645 
	C254.178757,51.493820 277.033813,44.933823 301.044373,41.868336 
	C334.881561,37.548248 367.702576,41.040718 399.327240,54.024353 
	C418.900421,62.060196 436.560181,73.215393 452.195648,87.543060 
	C474.334900,107.830482 491.144928,131.756790 500.467773,160.385239 
	C504.148804,171.688919 505.901947,183.620407 508.679901,195.632614 
	C509.153595,200.392746 509.480316,204.786285 509.856873,210.044266 
	C509.938873,213.939133 509.971039,216.969559 510.003204,220.000000 
	C508.437531,254.187836 499.718506,286.226074 481.237732,315.681854 
z"/>
<path fill="#B0B4BA" opacity="1.000000" stroke="none" 
	d="
M394.744873,163.289673 
	C399.549194,170.130051 404.112701,177.239914 408.767517,184.679321 
	C404.897614,186.528290 402.287231,184.640259 400.040283,181.614853 
	C398.210938,179.151733 395.835510,177.916199 393.528351,180.688995 
	C392.825867,181.533310 393.076355,184.327271 393.919281,185.087524 
	C396.630249,187.532623 400.331970,189.004837 402.662018,191.705917 
	C404.437592,193.764160 404.708099,197.120743 405.780640,200.291245 
	C400.691223,201.428650 398.156067,201.087463 396.640137,196.479156 
	C395.989197,194.500290 392.502563,193.276321 390.105042,192.123871 
	C388.880127,191.535080 387.215363,191.861389 385.391144,191.752747 
	C385.391144,188.451508 385.361481,185.381531 385.403229,182.312515 
	C385.425232,180.694641 385.974884,178.975143 385.591492,177.479660 
	C384.043823,171.443222 388.176453,164.813950 394.744873,163.289673 
z"/>
<path fill="#B0B4BA" opacity="1.000000" stroke="none" 
	d="
M382.131958,371.922302 
	C384.182739,366.711456 386.646027,361.534210 389.322815,356.122559 
	C394.658997,354.940521 399.753235,353.762085 404.914307,353.126129 
	C408.368927,352.700439 411.918488,353.045197 415.425568,353.045197 
	C415.703003,353.485260 415.980438,353.925323 416.257874,354.365387 
	C415.081207,355.540405 414.063019,356.962189 412.695801,357.840576 
	C409.567841,359.850159 406.365662,361.796021 403.015686,363.394989 
	C398.794098,365.410095 394.396973,367.058105 390.072113,368.856171 
	C387.566406,369.897888 385.053925,370.923218 382.131958,371.922302 
z"/>
<path fill="#B0B4BA" opacity="1.000000" stroke="none" 
	d="
M394.349487,229.998016 
	C392.699768,226.894089 391.483459,223.790878 390.182129,220.339584 
	C396.765045,214.297668 399.723389,213.060349 404.100800,216.847290 
	C408.179352,220.375656 411.800507,224.440918 417.150360,226.517166 
	C416.910675,226.924133 416.671021,227.331116 416.431335,227.738083 
	C414.235413,227.419418 411.643799,227.727814 409.929321,226.646057 
	C406.768158,224.651505 405.019775,226.150055 402.498016,227.767563 
	C400.337952,229.153061 397.385071,229.302582 394.349487,229.998016 
z"/>
<path fill="#B0B4BA" opacity="1.000000" stroke="none" 
	d="
M371.923584,184.073578 
	C368.491486,180.355392 365.421234,176.455017 362.239014,172.238129 
	C363.504089,165.573334 366.179993,166.115997 372.425995,167.820374 
	C380.808746,170.107803 379.475891,172.508820 375.188873,177.432953 
	C373.705444,179.136871 373.224335,181.713440 371.923584,184.073578 
z"/>
<path fill="#B0B4BA" opacity="1.000000" stroke="none" 
	d="
M400.991364,256.034698 
	C400.072083,253.237885 399.371796,250.119720 398.596588,246.591385 
	C402.041382,245.276794 405.529114,244.192841 409.096832,243.558105 
	C410.482941,243.311508 413.243988,243.907394 413.317108,244.415894 
	C413.568939,246.167496 413.548889,248.977295 412.481445,249.712234 
	C408.998230,252.110382 405.006470,253.769775 400.991364,256.034698 
z"/>
<path fill="#B0B4BA" opacity="1.000000" stroke="none" 
	d="
M387.022705,211.039856 
	C383.681732,205.702179 380.755615,200.276840 377.725098,194.502838 
	C379.809143,193.731522 381.997620,193.308884 384.735138,192.780212 
	C384.526550,195.073059 384.386322,196.614624 384.248627,198.128296 
	C390.668732,200.184875 391.722656,204.588623 387.022705,211.039856 
z"/>
<path fill="#B0B4BA" opacity="1.000000" stroke="none" 
	d="
M417.502289,203.999847 
	C419.230682,207.091385 420.553680,210.182602 421.890442,213.640244 
	C417.206543,215.283096 411.599121,211.574417 411.515198,206.593262 
	C411.448334,202.622101 415.041016,204.516617 417.502289,203.999847 
z"/>
<path fill="#B0B4BA" opacity="1.000000" stroke="none" 
	d="
M427.601685,234.941498 
	C427.973297,235.425827 428.008484,235.856262 428.080627,236.608032 
	C427.722107,238.378845 427.326691,239.828293 426.575806,242.580704 
	C423.564667,240.609100 420.636200,238.985855 418.228851,236.791092 
	C417.876770,236.470108 420.150024,231.868958 420.960632,231.943527 
	C423.134033,232.143463 425.172974,233.806000 427.601685,234.941498 
z"/>
<path fill="#B0B4BA" opacity="1.000000" stroke="none" 
	d="
M425.519104,347.948730 
	C425.337860,349.788391 424.802948,351.585510 424.092529,353.691254 
	C421.670685,353.869080 418.645111,354.418365 419.328979,350.703308 
	C419.905853,347.569336 421.956665,346.204224 425.519104,347.948730 
z"/>
<path fill="#FEFEFE" opacity="1.000000" stroke="none" 
	d="
M418.079956,373.091980 
	C417.981903,373.389435 417.757660,373.557678 417.533417,373.725922 
	C417.479034,373.485199 417.424683,373.244476 417.533386,372.856415 
	C417.696472,372.709076 417.953766,372.962708 418.079956,373.091980 
z"/>
<path fill="#B0B4BA" opacity="1.000000" stroke="none" 
	d="
M510.443176,220.000000 
	C509.971039,216.969559 509.938873,213.939133 509.929352,210.455139 
	C513.135193,211.269119 516.541016,212.166077 519.439697,213.907288 
	C522.396423,215.683472 521.205688,218.101120 518.620361,219.017212 
	C516.225830,219.865677 513.476379,219.712234 510.443176,220.000000 
z"/>
<path fill="#AEB2B8" opacity="1.000000" stroke="none" 
	d="
M539.572998,211.801300 
	C539.676636,212.859802 539.567322,213.677490 539.457947,214.495163 
	C539.038879,214.399200 538.619812,214.303238 538.200745,214.207275 
	C538.587158,213.325012 538.973572,212.442749 539.572998,211.801300 
z"/>
<path fill="#AFB3B9" opacity="1.000000" stroke="none" 
	d="
M209.362701,390.489502 
	C205.273392,380.469635 202.112915,370.391907 197.373688,361.121246 
	C184.421585,335.785004 165.023087,316.995972 138.386139,306.215851 
	C134.394211,304.600311 130.191589,303.505798 126.087723,302.166290 
	C120.069824,300.201996 116.701790,295.304321 116.943237,288.875641 
	C117.147163,283.445892 121.207809,278.605255 126.795197,277.083130 
	C158.527496,268.438324 181.150330,248.403244 196.745087,220.126495 
	C201.203522,212.042343 204.089066,203.052887 207.303711,194.333939 
	C209.439835,188.540222 214.860855,184.034286 220.701294,184.154480 
	C226.622147,184.276337 231.509415,188.151352 233.215286,194.498322 
	C238.973541,215.922775 249.856522,234.262848 265.892456,249.586426 
	C279.786652,262.863373 296.076660,271.861450 314.556732,276.923157 
	C321.437225,278.807678 325.087250,283.007721 325.039886,289.525452 
	C324.989105,296.515656 321.502319,300.270294 314.152985,302.214630 
	C298.622375,306.323364 284.738220,313.789795 272.464478,324.072693 
	C253.023560,340.360138 239.773895,360.648254 233.652451,385.429535 
	C232.370392,390.619720 229.296143,394.541656 223.856277,395.708923 
	C218.245728,396.912872 213.270325,395.526276 209.362701,390.489502 
M214.950867,332.579254 
	C216.703171,335.320404 218.455475,338.061554 220.565491,341.362274 
	C232.995987,319.440796 249.530441,302.368469 270.986481,289.536652 
	C249.678787,276.674957 233.195740,259.876404 220.410751,238.310684 
	C208.139725,260.149200 191.466370,276.649048 170.653488,289.822144 
	C188.665588,301.303864 203.178787,315.028198 214.950867,332.579254 
z"/>
<path fill="#FDFDFD" opacity="1.000000" stroke="none" 
	d="
M214.722839,332.300781 
	C203.178787,315.028198 188.665588,301.303864 170.653488,289.822144 
	C191.466370,276.649048 208.139725,260.149200 220.410751,238.310684 
	C233.195740,259.876404 249.678787,276.674957 270.986481,289.536652 
	C249.530441,302.368469 232.995987,319.440796 220.565491,341.362274 
	C218.455475,338.061554 216.703171,335.320404 214.722839,332.300781 
z"/>
</svg>